<svg width="180" height="186" viewBox="0 0 180 186" fill="none" xmlns="http://www.w3.org/2000/svg">
<path d="M111.405 1.86767C112.297 -0.967173 124.91 1.48198 127.122 0.567888C128.763 -0.107075 133.82 -0.662464 135.234 1.87926C143.482 3.68044 174.364 -4.92823 179.257 15.3785C180.297 19.6944 179.908 29.4987 179.863 35.1337C179.999 42.1919 179.902 52.9065 179.889 60.2308L179.818 105.469C179.813 115.088 180.258 161.205 179.773 167.531L179.647 167.974C175.365 183.618 162.904 182.318 157.073 182.307L143.376 182.257L97.6653 182.295C95.2191 186.977 92.2332 184.733 89.5965 184.844C86.841 184.956 84.083 185.222 81.3309 184.706L81.4741 184.528C79.5912 183.973 78.1347 184.289 76.259 184.605L78.7221 185.438C76.6815 186.264 74.2692 185.427 72.1816 185.473L54.6682 185.292C51.2748 185.242 45.7606 186.113 42.4902 185.192C38.3504 184.023 7.94684 188.165 6.96545 180.243C6.18603 180.081 5.70404 180.513 5.3935 177.424C3.36864 174.955 1.45541 173.389 0.153067 166.273C-0.106668 161.155 0.0401857 128.819 0.0518479 121.217L0.0136177 19.1043C3.30875 -0.0954817 18.4127 1.96409 23.8815 2.00266L40.6866 2.04126L84.5713 2.00652C93.2923 2.06437 102.747 2.83576 111.405 1.86767Z" fill="#EE9C5D"/>
<path d="M47.606 87.5649C47.4618 90.2262 47.2966 92.0351 47.4399 94.6771C48.033 97.0183 64.6389 117.067 66.9156 120.106L69.7126 123.797C70.8266 125.34 72.138 127.365 73.2809 128.155C73.4212 122.196 73.5134 118.806 72.9457 113.106C73.2069 104.481 71.5425 97.9825 75.3991 97.2073L75.4273 96.4398C79.494 98.0674 89.1335 99.6603 92.5346 106.179C94.1523 108.77 104.886 137.69 106.574 142.63C107.536 141.755 110.239 138.654 110.934 140.683C111.925 143.583 112.07 145.168 113.372 146.688C115.621 149.311 119.805 154.587 122.048 154.598L122.374 155.79L122.148 156.415C120.712 159.736 117.093 163.55 115.389 165.379C106.044 175.391 97.4616 175.194 88.9632 154.961C88.4169 154.251 87.9275 152.898 87.4303 151.698L87.0582 154.413C87.858 163.277 90.0251 159.362 89.476 165.529C89.2119 166.073 88.9192 166.713 88.6475 167.195C87.5562 166.844 86.4924 167.909 85.4028 168.696L84.8472 169.444L85.3406 171.172L85.6666 171.596C86.8882 172.514 88.1184 177.528 89.299 180.174L89.7046 181.558L89.7592 182.249C92.3585 182.26 95.0765 182.098 97.6653 182.295C95.2191 186.977 92.2332 184.733 89.5965 184.845C86.841 184.956 84.083 185.223 81.3309 184.706L81.4741 184.528C79.5912 183.973 78.1347 184.289 76.259 184.605L78.7221 185.438C76.6815 186.264 74.2692 185.427 72.1816 185.473L54.6682 185.292C51.2748 185.242 45.7606 186.113 42.4902 185.192C38.3504 184.023 7.94684 188.165 6.96545 180.243C6.18603 180.081 5.70404 180.513 5.3935 177.424C3.36864 174.955 1.45541 173.389 0.153067 166.273C-0.106668 161.155 0.0401857 128.819 0.0518479 121.217C3.67842 119.851 9.03939 122.671 12.9393 120.549C16.4845 108.331 17.4324 107.49 22.0958 103.683C28.0842 100.378 34.1815 98.6729 40.1274 95.3675C42.0257 94.3146 45.0992 89.424 47.606 87.5649Z" fill="#4FB0A1"/>
<path d="M72.4653 172.286C73.4503 166.763 75.284 142.839 75.3014 136.452C75.078 134.107 74.8192 133.543 74.3393 131.924L74.1551 131.306C74.3549 130.007 80.6018 118.891 81.6391 116.083C81.6513 114.961 81.6653 113.838 81.681 112.72C82.7455 110.795 84.927 113.187 85.694 110.899C85.1009 109.65 83.4852 105.627 82.9039 103.98C84.1845 101.955 84.4727 104.686 85.5899 105.696C85.8806 105.959 88.7862 105.461 88.9182 105.091L88.2715 104.269L88.4284 103.556C89.2463 103.243 91.2458 105.666 92.5345 106.179C94.1523 108.77 104.886 137.69 106.574 142.63C107.536 141.755 110.239 138.654 110.934 140.683C111.925 143.583 112.07 145.168 113.372 146.688C115.621 149.311 119.805 154.587 122.048 154.598L122.374 155.79L122.148 156.415C120.712 159.736 117.093 163.55 115.389 165.379C106.044 175.391 97.4615 175.194 88.9632 154.961C88.4169 154.251 87.9274 152.898 87.4302 151.698L87.0582 154.413C87.858 163.277 90.0251 159.362 89.4759 165.529C89.2119 166.073 88.9191 166.713 88.6474 167.195C87.5561 166.844 86.4924 167.909 85.4028 168.696L84.8471 169.444C82.9191 170.477 73.7914 174.223 72.4653 172.286Z" fill="#4FB0A1"/>
<path d="M88.9631 154.961C91.6218 154.197 93.6739 164.376 95.2027 163.176L94.5876 161.591C95.8877 159.412 98.8573 167.064 100.51 168.518C106.653 173.925 112.255 161.653 118.23 158.498C119.118 158.039 121.384 156.303 122.148 156.415C120.712 159.736 117.093 163.55 115.389 165.378C106.044 175.391 97.4615 175.194 88.9631 154.961Z" fill="#57A791"/>
<path d="M87.0582 154.413C85.7704 143.274 92.9957 144.05 93.8596 133.111C93.518 125.22 89.8108 122.231 88.106 116.538L88.0859 115.254C88.2055 115.219 88.4217 115.103 88.5164 115.377C90.5073 121.143 93.9887 123.928 95.3243 132.598C95.5185 142.221 88.7517 142.221 87.4303 151.698L87.0582 154.413Z" fill="#357879"/>
<path d="M103.758 144.775L104.374 144.833C103.434 148.019 100.263 151.093 98.9568 153.029C98.6909 152.886 98.444 152.554 98.1867 152.254L98.1235 151.108C99.2677 146.769 102.208 145.523 103.758 144.775Z" fill="#408B7E"/>
<path d="M30.5954 152.462C31.7801 154.984 33.5282 161.599 34.4291 165.783C35.6682 166.181 37.8289 167.13 39.0013 166.944C43.5531 168.368 69.765 176.907 71.9714 171.233L72.4653 172.286C73.7914 174.222 82.9191 170.477 84.8471 169.444L85.3406 171.172L85.6665 171.596C86.8881 172.514 88.1184 177.528 89.2989 180.174L89.7046 181.558L89.7591 182.249C92.3585 182.26 95.0764 182.098 97.6653 182.295C95.219 186.977 92.2331 184.733 89.5965 184.844C86.841 184.956 84.0829 185.222 81.3309 184.706L81.4741 184.528C79.5911 183.973 78.1346 184.289 76.2589 184.605L78.722 185.438C76.6814 186.264 74.2692 185.427 72.1815 185.473L54.6681 185.292C51.2748 185.242 45.7605 186.113 42.4902 185.192C38.3503 184.023 7.94677 188.165 6.96539 180.243C6.18596 180.081 5.70398 180.513 5.39343 177.424L6.12445 178.145C13.9874 183.317 19.4816 182.26 27.3745 182.283C27.4479 179.533 27.4308 179.722 27.8294 177.47L27.7334 164.592C28.4329 162.081 28.9949 159.771 29.6247 156.997C30.0523 155.509 30.2477 154.259 30.5954 152.462Z" fill="#2A6C6A"/>
<path d="M30.5955 152.462C31.7802 154.984 33.5283 161.599 34.4292 165.783C33.152 168.171 29.0344 176.205 27.8295 177.47L27.7335 164.592C28.433 162.081 28.9949 159.771 29.6248 156.997C30.0524 155.509 30.2477 154.259 30.5955 152.462Z" fill="#98795E"/>
<path d="M85.3407 171.172L85.6667 171.596C85.053 177.59 84.727 177.759 83.276 181.134C81.2288 181.111 78.7566 180.914 76.7271 181.3C78.07 180.397 80.5316 179.298 81.5446 176.035C82.2903 174.165 84.4658 174.643 85.3407 171.172Z" fill="#496671"/>
<path d="M81.5447 176.035C80.5316 179.298 78.0701 180.397 76.7271 181.3C76.1491 181.416 74.9045 181.975 74.444 181.261C76.2446 179.028 79.471 177.732 81.5447 176.035Z" fill="#1F535A"/>
<path d="M67.0181 177.32C68.2751 176.795 69.5478 177.065 70.8092 177.154L70.704 177.181C68.0308 179.919 64.8002 179.449 62.0342 180.039C61.0742 180.066 59.7703 180.991 58.8564 180.004C58.4686 179.584 58.1279 179.321 57.7319 179.082C59.44 177.304 64.8313 177.91 67.0181 177.32Z" fill="#1F535A"/>
<path d="M47.606 87.5649C47.4618 90.2262 47.2966 92.0351 47.4399 94.6771C48.033 97.0183 64.6389 117.067 66.9156 120.106C66.3895 120.897 66.3415 121.332 65.942 122.902L65.296 123.431C63.8328 120.121 59.0366 116.392 57.153 111.382C57.6375 111.567 57.97 111.667 58.4637 111.709C57.7729 109.735 56.7487 110.12 55.9547 110.421C54.3777 112.488 53.6638 109.592 52.6767 111.952C50.1991 113.499 47.3694 113.271 44.8462 113.696C43.7934 113.873 42.9769 114.305 42.2081 111.324C42.0918 107.806 42.0542 107.409 41.7276 104.069C40.9684 105.357 41.2953 104.385 40.7943 107.49L40.5529 106.699C40.4706 103.837 40.4782 100.968 40.0507 98.7732C38.6902 98.7963 36.1493 100.786 34.7365 101.373C30.5035 103.128 18.0987 106.703 15.1823 116.461C15.589 117.356 15.5224 116.897 16.1546 116.669C15.3059 119.034 14.5732 120.742 13.6761 123.265C11.9175 128.209 7.18923 162.532 7.66605 168.962L8.50976 169.07C8.13129 170.975 7.72431 171.083 7.12532 171.731L7.14024 172.506C9.35156 179.422 13.2595 178.824 15.9706 178.913C15.2779 179.264 14.4062 179.302 13.8495 180.486L13.834 180.775C14.4742 180.934 15.2232 180.494 15.8576 180.459C17.5496 180.37 25.8202 182.55 26.8131 180.004C26.0487 179.553 25.3916 179.129 24.6175 178.97L24.8813 178.967C25.5584 178.947 25.8831 179.206 26.4657 177.86C27.3112 173.44 25.627 159.504 29.6248 156.997C28.9949 159.771 28.4329 162.081 27.7335 164.592L27.8295 177.47C27.4309 179.723 27.4479 179.534 27.3746 182.284C19.4817 182.26 13.9874 183.317 6.12451 178.145L5.3935 177.424C3.36864 174.955 1.45541 173.389 0.153067 166.273C-0.106668 161.155 0.0401857 128.819 0.0518479 121.217C3.67842 119.851 9.03939 122.671 12.9393 120.549C16.4845 108.331 17.4324 107.49 22.0958 103.683C28.0842 100.378 34.1815 98.6729 40.1274 95.3675C42.0257 94.3146 45.0992 89.424 47.606 87.5649Z" fill="#57A791"/>
<path d="M0.0518479 121.217C3.67842 119.851 9.03939 122.671 12.9393 120.549C11.6489 126.366 7.90876 147.98 7.82046 154.317C6.87428 161.884 6.27376 169.679 6.12451 178.145L5.3935 177.424C3.36864 174.955 1.45541 173.389 0.153067 166.273C-0.106668 161.155 0.0401857 128.819 0.0518479 121.217Z" fill="#AD7851"/>
<path d="M0.268397 154.263C1.69702 154.818 6.49486 155.432 7.82047 154.317C6.87429 161.884 6.27377 169.679 6.12452 178.145L5.39351 177.424C3.36865 174.955 1.45542 173.389 0.153076 166.273C0.27937 163.35 0.257022 157.449 0.268397 154.263Z" fill="#9D6043"/>
<path d="M41.7276 104.069C41.7808 102.017 41.7227 101.716 41.5068 99.8416C42.218 97.3385 44.5678 96.0926 45.5216 95.6838C47.1766 94.978 51.4226 105.338 53.2083 108.014C54.1646 109.445 55.1721 109.106 55.9547 110.421C54.3777 112.489 53.6638 109.592 52.6767 111.952C50.1991 113.499 47.3694 113.271 44.8462 113.696C43.7934 113.873 42.9769 114.305 42.2081 111.324C42.0918 107.806 42.0542 107.409 41.7276 104.069Z" fill="#4FB0A1"/>
<path d="M75.4272 96.4397C79.4939 98.0673 89.1334 99.6602 92.5345 106.178C91.2458 105.665 89.2463 103.243 88.4283 103.556L88.2714 104.269L88.9181 105.091C88.7861 105.461 85.8805 105.959 85.5899 105.696C84.4726 104.686 84.1845 101.955 82.9038 103.98C83.4851 105.627 85.1008 109.65 85.694 110.899C84.927 113.187 82.7454 110.795 81.681 112.72C81.6652 113.838 81.6512 114.961 81.6391 116.083C80.6017 118.891 74.3549 130.007 74.1551 131.306L74.3393 131.923C74.8191 133.543 75.0779 134.107 75.3013 136.452C75.2839 142.839 73.4502 166.763 72.4653 172.286L71.9713 171.233C72.3865 163.003 74.1571 140.382 73.9526 133.933C72.7643 129.999 54.7377 120.418 51.8343 118.015L51.7232 117.117L52.6069 114.471C52.0036 112.778 43.3379 116.457 41.413 115.501C40.9539 113.024 40.9314 110.591 40.7942 107.49C41.2952 104.385 40.9683 105.357 41.7275 104.069C42.0541 107.409 42.0917 107.806 42.208 111.324C42.9768 114.305 43.7933 113.873 44.8461 113.696C47.3693 113.271 50.199 113.499 52.6766 111.952C53.6637 109.592 54.3776 112.488 55.9546 110.421C56.7486 110.12 57.7728 109.735 58.4636 111.709C57.9699 111.667 57.6374 111.567 57.1529 111.381C59.0366 116.392 63.8327 120.121 65.2959 123.431L65.9419 122.902C66.3414 121.332 66.3894 120.897 66.9155 120.106L69.7125 123.797C70.8265 125.34 72.1379 127.365 73.2808 128.155C73.4211 122.196 73.5133 118.806 72.9456 113.105C73.2068 104.481 71.5424 97.9825 75.399 97.2072L75.4272 96.4397Z" fill="#408B7E"/>
<path d="M72.9457 113.106C73.2069 104.481 71.5425 97.9825 75.399 97.2073C76.434 98.5495 82.9001 106.745 83.28 109.445C82.6797 110.734 77.2118 110.514 75.9888 111.139C77.0085 111.891 79.3504 113.106 80.0806 115.589C79.116 118.559 73.6898 130.678 72.4197 130.145L72.2096 129.417C72.4896 129.116 73.0435 128.614 73.2808 128.155C73.4212 122.196 73.5134 118.806 72.9457 113.106Z" fill="#4FB0A1"/>
<path d="M55.9548 110.421C56.7488 110.12 57.773 109.735 58.4637 111.709C57.9701 111.667 57.6375 111.567 57.1531 111.382C59.0367 116.392 63.8328 120.121 65.296 123.431C65.9002 124.021 65.8456 123.485 66.1624 124.842C65.4472 125.525 55.3154 118.555 53.7386 117.661L55.67 112.107C54.6721 112.134 53.6741 112.08 52.6768 111.952C53.6639 109.592 54.3778 112.489 55.9548 110.421Z" fill="#4FB0A1"/>
<path d="M40.7942 107.49C41.2952 104.385 40.9683 105.357 41.7275 104.069C42.0541 107.409 42.0917 107.806 42.208 111.324C42.176 113.028 42.1698 112.97 42.3182 114.675L41.413 115.501C40.9539 113.024 40.9314 110.591 40.7942 107.49Z" fill="#2A6C6A"/>
<path d="M65.2959 123.431L65.942 122.902C66.3415 121.332 66.3894 120.897 66.9155 120.106L69.7125 123.797C68.6822 124.144 67.111 124.939 66.1623 124.842C65.8455 123.485 65.9001 124.021 65.2959 123.431Z" fill="#57A791"/>
<path d="M30.5953 152.462C31.5308 148.678 34.5225 134.693 35.1624 132.768L35.5236 132.907C35.9541 136.12 36.1459 141.496 36.4016 145.322C37.0165 154.525 37.663 159.327 39.0012 166.944C37.8289 167.129 35.6681 166.181 34.429 165.783C33.5281 161.599 31.78 154.984 30.5953 152.462Z" fill="#408B7E"/>
<path d="M123.318 152.107C123.551 151.305 134.386 130.358 135.658 129.405C136.381 128.861 139.416 128.892 140.453 128.819C143.717 128.583 147.064 128.63 150.331 127.858C153.757 127.052 157.076 125.675 160.46 123.357C162.315 122.088 164.316 119.639 166.054 118.717C167.759 120.792 177.376 119.782 179.696 119.52C179.746 128.522 179.909 159.342 179.647 167.974C175.365 183.618 162.904 182.318 157.073 182.307L143.376 182.256L97.6654 182.295C95.0766 182.098 92.3586 182.26 89.7593 182.249L89.7047 181.558L89.2991 180.174C88.1185 177.528 86.8883 172.514 85.6667 171.596L85.3408 171.172L84.8473 169.444L85.4029 168.695C86.4925 167.909 87.5563 166.844 88.6476 167.195C88.9193 166.713 89.212 166.073 89.4761 165.529C90.0252 159.362 87.8581 163.276 87.0583 154.413L87.4304 151.698C87.9276 152.897 88.417 154.251 88.9633 154.961C97.4617 175.194 106.044 175.391 115.389 165.379C117.093 163.55 120.712 159.736 122.148 156.415L122.374 155.79L122.048 154.598C122.469 153.715 122.889 152.924 123.318 152.107Z" fill="url(#paint0_linear_2177_7240)"/>
<path d="M85.4029 168.695C86.4925 167.909 87.5563 166.844 88.6476 167.195C91.1006 169.32 92.8695 171.264 94.9991 176.648C95.8353 178.766 96.9077 180.193 97.6654 182.295C95.0766 182.098 92.3586 182.26 89.7593 182.249L89.7047 181.558L89.2991 180.174C88.1185 177.528 86.8883 172.514 85.6667 171.596L85.3408 171.172L84.8473 169.444L85.4029 168.695Z" fill="#357879"/>
<path d="M85.4029 168.696C86.2324 169.139 88.3539 171.014 88.7959 174.091C88.6897 179.152 89.6837 178.442 89.2991 180.174C88.1185 177.528 86.8883 172.514 85.6667 171.596L85.3408 171.172L84.8473 169.444L85.4029 168.696Z" fill="#1F535A"/>
<path d="M88.7958 174.091C90.1046 176.575 90.9886 177.871 92.3634 179.776L92.4351 181.092L92.4887 180.016L92.328 181.2L92.6466 180.853C91.7434 181.998 90.6757 181.612 89.7047 181.558L89.2991 180.174C89.6836 178.442 88.6896 179.152 88.7958 174.091Z" fill="#496671"/>
<path d="M114.495 120.468C112.383 118.32 107.828 112.808 107.91 101.662C107.926 99.3208 108.612 94.7581 109.119 93.4853C118 71.1729 130.639 71.7398 140.838 70.6021C148.261 70.9916 164.088 74.8717 169.842 94.92C170.337 96.6441 170.617 100.235 170.548 103.016C170.447 107.108 169.538 109.422 168.755 112.157L168.041 114.259C167.947 116.249 168.033 115.971 167.772 117.441C167.125 117.823 166.693 118.143 166.054 118.717C164.316 119.639 162.315 122.088 160.46 123.357C157.076 125.675 153.757 127.052 150.331 127.858C147.064 128.63 143.717 128.583 140.453 128.819C139.416 128.892 136.381 128.861 135.658 129.405C134.386 130.358 123.551 151.305 123.318 152.107C122.682 150.406 113.264 144.863 111.892 141.003C112.191 139.88 112.824 140.486 113.388 140.567C113.127 140.266 112.865 139.981 112.601 139.711L112.516 138.006C114.944 136.436 124.119 124.572 126.485 120.627L114.495 120.468Z" fill="#FDD77C"/>
<path d="M126.485 120.626C131.074 110.919 134.898 110.521 139.966 107.76C141.475 106.938 144.753 101.743 145.865 106.213C145.337 109.758 142.529 111.902 141.196 113.904C144.83 114.305 148.514 113.414 152.147 112.982C156.683 111.088 164.231 108.527 168.755 112.157L168.041 114.259C167.947 116.249 168.033 115.971 167.772 117.441C167.125 117.822 166.693 118.143 166.054 118.717C164.316 119.639 162.315 122.088 160.46 123.357C157.076 125.675 153.757 127.052 150.331 127.858C147.064 128.63 143.717 128.583 140.453 128.819C139.416 128.892 136.381 128.861 135.658 129.405C134.387 130.357 123.551 151.304 123.318 152.107C122.682 150.406 113.264 144.863 111.892 141.003C112.191 139.88 112.824 140.486 113.388 140.567C113.127 140.266 112.865 139.981 112.601 139.711L112.516 138.006C114.944 136.436 124.119 124.572 126.485 120.626Z" fill="#A35D3F"/>
<path d="M152.147 112.982C156.683 111.088 164.231 108.527 168.755 112.157L168.041 114.259C166.863 110.591 164.468 114.374 163.081 113.877C159.136 112.473 155.582 115.512 151.647 116.638L151.539 116.037C151.992 114.652 152.745 114.868 153.347 114.748C152.901 114.004 152.809 114.135 152.321 113.962L152.147 112.982Z" fill="#8E4F36"/>
<path d="M160.687 117.903C161.393 117.518 162.296 116.793 162.964 117.896C162.202 118.613 161.458 118.166 160.687 117.903Z" fill="#8E4F36"/>
<path d="M155.975 119.049C156.3 119.408 156.387 119.593 156.674 120.457L156.151 122.412C155.79 122.003 155.607 121.799 155.299 120.889L155.975 119.049Z" fill="#8E4F36"/>
<path d="M35.7561 72.4265C34.8909 69.1829 31.8926 71.1807 31.1674 63.814C32.0898 50.8894 40.3439 66.2284 42.2848 59.6254C43.4124 48.1355 44.4156 53.7782 46.6961 46.9785C47.5641 44.3905 46.7219 43.5072 47.3001 40.7225C49.6725 39.9666 53.2828 42.7667 55.7521 42.3193C56.8744 42.1187 58.3674 39.0293 59.4968 39.0795C64.5869 39.3186 69.2669 48.7064 74.206 40.6724C77.0209 43.3761 80.0955 43.4687 82.788 47.3796C83.87 48.9494 83.9764 55.0703 84.5825 58.7691C84.602 65.6885 84.6223 69.0594 83.2502 74.4861C81.2121 82.5433 76.2479 86.2575 73.424 88.4444C72.2616 89.0268 70.8847 89.9679 69.7595 90.4114L69.7855 90.9707C71.8185 92.6793 73.4288 94.0562 75.4273 96.4398L75.3991 97.2074C71.5425 97.9826 73.2069 104.482 72.9457 113.106C73.5134 118.806 73.4212 122.196 73.2808 128.155C72.138 127.365 70.8266 125.34 69.7125 123.797L66.9155 120.106C64.6389 117.067 48.0329 97.0183 47.4399 94.6772C47.2966 92.0352 47.4618 90.2263 47.606 87.565C47.3027 86.1148 47.1851 85.22 46.9427 83.6001C45.6153 80.0633 43.7646 80.9388 40.8236 72.0524C39.2381 74.8988 37.3681 74.9991 35.7561 72.4265Z" fill="#A35D3F"/>
<path d="M47.6059 87.5649C48.472 89.4818 48.3676 90.2069 48.6151 94.0253C51.0462 99.6873 58.9116 103.668 59.942 107.744L59.9886 108.604C61.8386 112.095 63.2713 110.093 65.1301 113.765C66.0712 115.628 68.0247 116.546 69.0856 116.893L69.1901 117.429C68.6303 118.663 67.4322 117.661 66.7675 117.248C67.9222 118.814 71.1724 123.01 72.2831 121.236C72.4663 119.936 72.6226 119.504 72.4108 117.68C71.8538 112.882 70.862 102.669 69.8148 100.027L68.8525 97.5852C68.5428 96.7984 68.6485 97.1996 68.4636 96.189C68.564 95.7841 68.6969 94.9779 68.7859 94.4843L68.4352 91.31C69.1002 89.7865 68.8795 90.2494 69.7595 90.4114L69.7855 90.9706C71.8185 92.6792 73.4288 94.0562 75.4273 96.4398L75.399 97.2073C71.5425 97.9825 73.2069 104.481 72.9457 113.106C73.5134 118.806 73.4212 122.196 73.2808 128.155C72.1379 127.365 70.8266 125.34 69.7125 123.797L66.9155 120.106C64.6388 117.067 48.0329 97.0183 47.4399 94.6771C47.2965 92.0351 47.4618 90.2262 47.6059 87.5649Z" fill="#9D6043"/>
<path d="M72.9456 113.106C72.244 109.106 71.8274 103.664 70.7915 100.058C70.0498 97.4774 69.4034 95.2519 68.809 92.0507C69.1026 90.7586 69.2022 91.1828 69.7855 90.9707C71.8184 92.6793 73.4288 94.0563 75.4272 96.4399L75.399 97.2074C71.5424 97.9826 73.2068 104.482 72.9456 113.106Z" fill="#57A791"/>
<path d="M49.9166 83.6848C53.1198 86.2034 56.3515 88.0933 59.6004 89.3391C61.0175 89.8675 67.908 90.5347 68.4353 91.31L68.7859 94.4842C68.6969 94.9779 68.5641 95.784 68.4637 96.189C67.2738 95.5488 65.1228 95.9152 63.8213 95.6182C59.3886 94.6192 53.758 93.3117 49.9166 83.6848Z" fill="#8E4F36"/>
<path d="M35.7561 72.4264C36.7319 67.0152 39.5891 68.8896 40.8236 72.0523C39.2381 74.8987 37.3681 74.999 35.7561 72.4264Z" fill="#F2B039"/>
<path d="M58.9479 74.9334L59.1245 73.7069L59.5091 73.7879C61.9022 74.2314 72.7399 71.2076 74.2528 75.6276C74.7414 89.312 61.3259 83.2836 59.0537 78.2773C59.0057 77.7991 58.9578 77.3247 58.9098 76.8464L58.9479 74.9334Z" fill="#854932"/>
<path d="M60.1541 75.5813C63.5505 76.0557 69.6461 74.9603 72.6275 76.3604C68.0672 80.1016 65.0297 79.392 60.3771 77.1819L60.1541 75.5813Z" fill="#F5F2E8"/>
<path d="M58.9479 74.9336C59.221 75.0609 59.9264 75.3154 60.154 75.5815L60.377 77.1822C59.8407 76.8428 59.4498 76.8929 58.9098 76.8466L58.9479 74.9336Z" fill="#E8BBA0"/>
<path d="M76.2805 55.9112C78.014 55.564 81.1191 55.8186 82.7079 58.4992L82.7105 59.4557L82.4198 60.0496L82.3441 59.5984L82.1072 59.8066C81.2388 61.2646 78.2538 63.7446 77.4846 61.9666C75.6774 62.7264 75.4246 62.8382 73.7095 61.4304L73.4781 60.8789C73.585 59.0121 73.6329 59.2821 73.967 57.5619C74.7208 55.888 75.4041 56.1079 76.2805 55.9112Z" fill="#F5F2E8"/>
<path d="M73.4781 60.8789C73.585 59.0121 73.6329 59.2821 73.967 57.5619C74.7208 55.888 75.4041 56.1078 76.2805 55.9111C76.7782 57.8396 76.6677 58.1135 77.4826 58.1405L77.8833 59.3901L77.869 60.6552L77.4846 61.9665C75.6774 62.7264 75.4246 62.8382 73.7095 61.4304L73.4781 60.8789Z" fill="#3D291D"/>
<path d="M76.2805 55.9112C78.014 55.564 81.1191 55.8186 82.7079 58.4992L82.7105 59.4557L82.4198 60.0496L82.3441 59.5984L82.1072 59.8066C81.0392 58.341 78.5651 56.4974 77.4826 58.1405C76.6677 58.1135 76.7782 57.8396 76.2805 55.9112Z" fill="#623F29"/>
<path d="M59.5884 56.4241C60.3256 56.5629 61.9059 57.0643 62.452 58.9503L62.4078 59.525L62.5982 61.2144C62.115 63.7638 59.8997 63.3588 59.1834 62.3753C57.3171 63.0001 56.5648 63.1312 54.7615 61.6386L54.9844 58.9889C55.8364 58.4258 55.4395 59.0506 56.1706 56.6053C57.2663 56.6169 58.5073 56.7635 59.5884 56.4241Z" fill="#3D291D"/>
<path d="M59.5883 56.4241C60.3256 56.5629 61.9058 57.0643 62.4519 58.9503L62.4077 59.525L62.5981 61.2144C62.1149 63.7638 59.8996 63.3588 59.1833 62.3753L59.6719 60.6628L59.6735 58.5917L60.0676 57.801L59.5883 56.4241Z" fill="#F5F2E8"/>
<path d="M59.5883 56.4241C60.3255 56.5629 61.9058 57.0643 62.4519 58.9503L62.4077 59.525C61.4125 59.1046 61.0254 59.0506 60.0676 57.801L59.5883 56.4241Z" fill="#854932"/>
<path d="M54.7466 49.1615C56.2818 48.205 61.0733 47.3256 62.331 50.9164C61.4898 52.7562 58.947 51.0784 57.9393 50.8586C55.6994 50.6773 53.4136 51.5374 51.1733 51.8807L51.0327 51.279L50.8884 51.4178L51.0138 51.8652L50.7778 51.7186C51.8797 49.5163 53.5336 49.5125 54.7466 49.1615Z" fill="#502C1B"/>
<path d="M51.7982 60.4045L50.9965 60.3621L50.8812 59.6331C51.7291 56.914 55.03 56.4666 56.1706 56.6054C55.4395 59.0507 55.8365 58.4259 54.9844 58.989L54.7615 61.6387L54.5487 62.3368C53.2915 61.955 53.0272 61.8277 51.7982 60.4045Z" fill="#3E271C"/>
<path d="M51.7982 60.4043C52.7827 59.255 54.0227 57.4923 54.9844 58.9888L54.7615 61.6385L54.5487 62.3367C53.2915 61.9548 53.0272 61.8275 51.7982 60.4043Z" fill="#F5F2E8"/>
<path d="M76.0323 48.4017C77.6898 47.8308 79.4263 48.7719 81.0647 49.7361L81.274 50.6811L81.667 50.5307L81.6842 50.4072L81.6738 50.5615C81.5945 50.4728 79.0223 50.4844 78.5204 50.3417C76.6225 50.2376 73.6939 52.4823 71.9614 50.9896C72.6611 48.3091 75.021 48.6524 76.0323 48.4017Z" fill="#502C1B"/>
<path d="M70.5783 70.8065C69.2315 71.2886 67.2173 71.1768 65.912 69.85C67.3386 68.8395 69.1287 69.1866 70.6221 69.0979L70.5783 70.8065Z" fill="#8E4F36"/>
<path d="M70.659 65.052C69.9572 63.5015 69.6104 62.9384 69.0481 60.7168L69.1115 59.8181C70.2831 60.2809 70.7736 62.1554 71.7751 64.89L70.659 65.052Z" fill="#854932"/>
<path d="M70.6592 65.0519L71.7753 64.8899L72.1568 67.0498C72.0127 70.4092 71.3593 70.1932 70.5784 70.8064L70.6222 69.0978C70.8598 66.5445 70.8323 67.8443 70.6592 65.0519Z" fill="#8E4F36"/>
<path d="M73.7095 61.4303L73.5433 62.1283C72.9235 62.1283 72.8545 62.3482 72.3232 61.0214L72.3217 59.8605C72.9574 58.634 72.6709 58.6147 73.2509 58.9001L73.4782 60.8787L73.7095 61.4303Z" fill="#F5F2E8"/>
<path d="M53.7017 15.606C56.823 13.2301 59.2778 11.6797 62.4278 13.5619C63.7101 14.3255 66.091 16.1229 67.2182 16.0149C72.1331 15.5559 75.5287 12.4935 80.1514 20.8592C81.2448 22.8378 86.8066 20.1919 88.2524 25.0054C88.6743 25.7883 88.6733 26.6523 88.8073 28.1333L88.7948 29.4216C90.5255 32.1831 91.6687 28.9664 92.8675 35.8896L92.7996 37.2126C92.1328 38.3272 91.9472 38.0187 91.7195 39.9741L91.9137 40.4948C92.371 41.729 92.6714 42.2034 92.8685 44.1936C92.4446 46.7546 90.1122 48.7024 89.2588 49.4853C87.7006 55.911 86.6811 56.019 84.5826 58.769C83.9764 55.0702 83.87 48.9492 82.7881 47.3794C80.0955 43.4685 77.0209 43.3759 74.206 40.6722C69.2669 48.7062 64.587 39.3184 59.4968 39.0793C58.3674 39.0292 56.8744 42.1186 55.7521 42.3191C53.2829 42.7665 49.6726 39.9664 47.3001 40.7224C46.7219 43.5071 47.5641 44.3903 46.6962 46.9783C44.4157 53.7781 43.4124 48.1354 42.2848 59.6252C40.344 66.2283 32.0898 50.8892 31.1674 63.8138C31.8927 71.1806 34.891 69.1827 35.7561 72.4264C37.3682 74.999 39.2381 74.8987 40.8237 72.0522C43.7647 80.9386 45.6153 80.0631 46.9427 83.5999C43.5894 87.4761 40.9034 83.5189 37.6595 82.6936C35.692 82.6357 33.7074 83.9586 31.7495 82.7437C30.2018 81.7833 28.8091 78.6592 27.2432 77.8261C25.9887 78.5319 22.084 77.9418 21.5625 74.2738C20.2238 64.8668 17.8872 70.0736 16.3593 63.7791L16.3895 62.2711C16.8331 60.7167 17.7303 58.9233 17.8683 57.4769C17.0081 55.0085 16.5464 55.2283 16.171 52.432C16.7332 46.0256 18.7938 48.4362 19.443 46.3072L19.4588 45.0537C19.1804 43.4454 18.9768 42.1533 18.7246 40.4948C21.4361 34.6593 22.9203 36.1211 25.7057 33.9843L26.0811 33.6912C27.859 27.8132 32.467 28.9549 34.5923 26.8066C38.0395 23.3238 38.8943 18.9269 42.7995 17.4111C46.5553 15.9493 50.1593 18.1593 53.7017 15.606Z" fill="#3E271C"/>
<path d="M101.232 120.519C105.562 120.519 110.189 120.924 114.495 120.469L126.485 120.627C124.119 124.572 114.944 136.436 112.516 138.006C110.767 138.126 107.077 136.722 105.444 134.928C104.726 134.141 100.56 124.044 100.088 121.649L101.232 120.519Z" fill="#D59A5D"/>
<path d="M69.7595 90.4114C70.8847 89.9679 72.2616 89.0267 73.424 88.4443C73.8258 90.9475 73.8757 91.7999 74.5727 92.4478C75.789 93.5779 77.2365 90.1568 78.2487 92.8875C78.6136 93.871 79.1887 93.8595 79.6538 93.9714C78.5973 94.4419 77.6814 93.8479 76.6168 94.8353L76.5986 95.3405C78.6336 96.1852 92.3882 99.4829 93.1535 101.639C92.7259 102.271 92.6618 102.295 92.2083 102.572C93.8997 108.836 97.2951 109.499 97.5907 110.919C97.1353 110.888 96.1499 110.46 95.8734 111.331C95.7653 110.953 99.9576 120.7 100.059 120.916L101.232 120.519L100.088 121.649C100.56 124.044 104.726 134.141 105.444 134.928C107.077 136.722 110.767 138.126 112.516 138.006L112.601 139.711C112.864 139.981 113.127 140.266 113.388 140.567C112.824 140.486 112.191 139.88 111.891 141.003C113.264 144.864 122.682 150.406 123.318 152.107C122.889 152.925 122.469 153.715 122.048 154.598C119.805 154.587 115.621 149.311 113.372 146.688C112.07 145.168 111.925 143.583 110.934 140.683C110.239 138.654 107.536 141.755 106.574 142.63C104.886 137.69 94.1523 108.77 92.5345 106.179C89.1335 99.6603 79.4939 98.0674 75.4273 96.4398C73.4288 94.0562 71.8185 92.6793 69.7855 90.9706L69.7595 90.4114Z" fill="#B78F5D"/>
<path d="M53.7018 15.606C55.93 7.02822 68.1947 12.7866 71.7388 13.7007C74.7893 14.4875 76.8496 9.92093 79.2788 17.8392C81.6791 18.842 83.1188 14.8694 85.8039 19.8872C86.6312 21.43 88.9193 19.4475 89.9917 22.9844C89.8788 24.0373 89.0542 27.443 88.8073 28.1334C88.6734 26.6523 88.6743 25.7883 88.2524 25.0054C86.8067 20.1919 81.2449 22.8378 80.1515 20.8592C75.5288 12.4935 72.1332 15.5559 67.2182 16.0149C66.0911 16.1229 63.7102 14.3256 62.4278 13.5619C59.2779 11.6797 56.8231 13.2302 53.7018 15.606Z" fill="#E59869"/>
<path d="M27.2433 77.8262C28.8092 78.6593 30.2018 81.7834 31.7495 82.7438C33.7075 83.9587 35.6921 82.6358 37.6595 82.6936C40.9034 83.519 43.5894 87.4762 46.9428 83.6C47.1852 85.2199 47.3028 86.1147 47.606 87.5649C45.0993 89.424 42.0257 94.3146 40.1274 95.3675C34.1815 98.6729 28.0843 100.378 22.0958 103.683C23.8531 97.6084 37.1732 95.8033 40.3783 93.4699C41.8801 92.3745 43.2559 88.9303 44.8221 87.7385L45.1761 87.48L44.9428 86.2883L45.1581 86.1109L45.4094 87.025L45.4678 86.8475L45.4496 86.0491C45.2479 85.9527 45.2762 85.891 45.0855 86.107C43.3161 88.2785 41.3426 85.9797 39.5061 85.9103C36.6664 85.8023 29.3201 86.5158 27.2433 77.8262Z" fill="#E59869"/>
<path d="M179.394 118.258C179.434 109.31 179.265 39.6387 179.863 35.1338C179.999 42.192 179.902 52.9066 179.889 60.2309L179.818 105.469C179.813 115.088 180.258 161.205 179.773 167.531L179.647 167.974C179.909 159.343 179.746 128.522 179.696 119.52C177.376 119.782 167.759 120.792 166.054 118.717C166.693 118.143 167.125 117.823 167.772 117.441L168.011 118.536C171.608 118.81 175.742 118.305 179.394 118.258Z" fill="#EAAF64"/>
<path d="M18.7246 40.4948C19.2247 37.2627 20.6481 34.3006 21.5802 34.5783C20.8772 33.4173 20.557 34.9871 19.656 34.0267L19.727 33.4019C21.2597 31.1224 24.8537 28.681 26.0811 33.6912L25.7057 33.9843C22.9202 36.121 21.4361 34.6593 18.7246 40.4948Z" fill="#E59869"/>
<defs>
<linearGradient id="paint0_linear_2177_7240" x1="133.856" y1="184.524" x2="125.679" y2="124.541" gradientUnits="userSpaceOnUse">
<stop stop-color="#AB7053"/>
<stop offset="1" stop-color="#CF9059"/>
</linearGradient>
</defs>
</svg>
