<svg width="304" height="200" viewBox="0 0 304 200" fill="none" xmlns="http://www.w3.org/2000/svg">
<path d="M79.4985 199.948L33.7804 199.951C25.9984 199.959 18.1613 200.131 10.3931 199.778C5.41331 199.552 0.479496 197.213 0.22224 191.574C-0.113112 184.257 0.0293379 176.865 0.0339317 169.535L0.0706624 127.828C0.0982256 89.0026 0.0155316 50.1428 0.0660641 11.3156C0.102815 8.32367 0.700041 5.00195 2.90509 2.81148C4.16841 1.55774 6.75932 0.235763 8.56471 0.19666C22.112 -0.0973275 35.7512 0.025037 49.3077 0.0263696L131.464 0.0431868L240.334 0.0393271L275.431 0.0397407C281.55 0.0396948 287.692 0.0134113 293.816 0.0780168C298.529 0.127734 302.838 4.08709 302.939 8.88812C303.169 20.1161 303.063 31.4031 303.063 42.6502L303.045 109.084L303.059 164.119C303.059 173.126 303.243 182.22 302.866 191.207C302.622 197.023 297.367 199.653 292.176 199.838C284.826 200.1 277.42 199.963 270.061 199.961L225.418 199.947L220.502 199.884L201.227 199.88L197.143 199.957L194.791 199.927L186.402 199.899L180.067 199.774C175.46 200.056 169.428 199.886 164.71 199.88L158.743 199.92L151.705 199.908L139.825 199.882L123.255 199.864L116.888 199.912C112.85 199.931 108.807 199.903 104.769 199.826L100.718 199.894L79.4985 199.948Z" fill="#FDD690"/>
<path d="M77.0218 139.821C77.9406 140.502 78.7353 141.316 79.7505 141.449C80.164 142.267 80.7382 143.53 81.2527 144.238L81.4365 144.925C81.4916 146.892 81.7535 146.419 80.9036 147.915L79.8608 146.752L78.4138 144.597L75.4507 141.22L77.0218 139.821Z" fill="#C9403F"/>
<path d="M141.203 31.1595C143.909 30.5723 143.5 31.4526 146.109 31.2405L147.437 31.1383L147.887 31.4064L149.628 32.1404C152.123 32.1188 152.398 32.1912 154.309 33.7577L156.804 35.21C157.782 35.9492 160.575 37.9209 161.094 38.7785C161.724 40.0525 162.155 41.0418 162.996 42.2002C164.315 44.7784 164.76 45.3262 164.448 48.266L165.431 49.6965L165.555 52.9805C166.589 60.411 169.202 58.2863 172.919 62.7108C173.521 66.0307 173.507 67.9399 172.606 71.2143C171.256 74.2736 170.751 74.9684 168.33 77.3739C168.376 75.9669 168.16 74.8797 167.958 73.4962L166.056 74.0875C165.059 75.2023 163.91 81.3407 162.973 83.7365L160.984 87.3064C159.225 88.8953 156.018 91.3927 155.389 93.5266L155.108 94.5936C157.061 99.1325 169.437 102.297 174.288 102.982C176.181 103.394 177.265 103.707 179.098 104.32C172.515 124.986 157.208 120.128 151.461 131.223L150.253 135.373C149.614 138.609 149.251 139.589 147.947 142.636L145.549 142.301C144.074 140.255 142.746 137.791 141.488 135.581C140.675 133.514 140.472 133.014 139.218 131.177C132.952 124.561 124.132 123.694 114.889 117.937C113.415 117.048 112.409 116.001 111.177 114.825L108.619 112.105C108.205 109.184 105.352 107.928 104.172 105.78L101.034 99.8819C103.101 99.4362 103.947 99.1458 106.051 99.4146C111.164 98.6266 121.059 97.8032 124.003 93.1737C120.154 91.9372 120.383 91.2544 119.028 87.4415L119.364 85.3131C118.642 83.8023 117.898 82.3043 117.126 80.8201C116.456 76.6341 116.497 72.9043 115.868 68.9251C114.765 69.4847 114.104 69.6851 113.359 70.6326L111.853 68.9412C110.213 64.1003 110.475 60.7189 112.831 56.2875C118.762 53.1032 117.301 57.5566 120.31 48.874L120.765 46.0687C121.417 45.6009 122.4 42.8127 122.818 41.8349L125.01 38.4308L127.054 35.851C128.992 34.1427 129.25 33.936 131.638 33.1123L135.626 31.1351C137.372 30.9035 138.029 31.1415 139.696 31.5346C139.866 31.5348 140.959 31.2242 141.203 31.1595Z" fill="#A85937"/>
<path d="M101.034 99.8822C103.101 99.4365 103.947 99.1461 106.051 99.4149C108.747 107.161 115.376 113.72 122.676 117.044C134.661 122.502 139.342 120.682 145.783 133.393C147.097 128.664 148.434 123.882 153.289 121.577C162.174 117.362 170.673 115.068 173.957 104.22C174.086 103.812 174.196 103.4 174.288 102.982C176.181 103.395 177.265 103.708 179.098 104.321C172.515 124.986 157.208 120.129 151.461 131.223L150.253 135.373C149.614 138.609 149.251 139.59 147.947 142.636L145.549 142.302C144.074 140.256 142.746 137.791 141.488 135.581C140.675 133.514 140.472 133.014 139.218 131.178C132.952 124.561 124.132 123.694 114.889 117.938C113.415 117.049 112.409 116.001 111.177 114.825L108.619 112.105C108.205 109.185 105.352 107.928 104.172 105.78L101.034 99.8822Z" fill="#F9B725"/>
<path d="M129.971 93.5273C139.195 98.2482 140.358 97.0669 149.536 93.7553C149.536 93.7553 151.732 94.3462 152.214 93.7539C153.184 93.3288 153.317 93.253 154.318 92.5725L155.132 92.7563L155.389 93.5269L155.109 94.5938C146.674 104.735 136.099 108.598 126.87 96.5628C127.504 95.8616 128.046 95.783 128.951 95.4664L129.332 95.3355C129.764 94.5309 129.755 94.4243 129.971 93.5273Z" fill="#8B4125"/>
<path d="M166.056 74.0876C165.748 70.3247 166.092 67.3605 168.568 64.434L169.248 64.4087C170.296 67.0035 168.807 70.8486 167.957 73.4962L166.056 74.0876Z" fill="#8B4125"/>
<path d="M115.868 68.9252C114.003 66.6346 113.272 59.5593 115.606 57.9524C117.26 61.6339 116.956 64.3174 116.594 68.3325C116.226 68.7171 116.249 68.8365 115.868 68.9252Z" fill="#8B4125"/>
<path d="M119.365 85.3132C121.786 88.1594 123.83 89.6739 124.004 93.1739C120.155 91.9374 120.384 91.2545 119.029 87.4416L119.365 85.3132Z" fill="#A38D7B"/>
<path d="M126.87 96.5626C125.983 95.0582 125.276 93.75 124.477 92.1988C125.248 91.1539 125.276 92.7837 128.556 92.1969L129.971 93.5272C129.755 94.4241 129.764 94.5307 129.332 95.3353L128.951 95.4663C128.046 95.7829 127.504 95.8614 126.87 96.5626Z" fill="#924627"/>
<path d="M129.503 75.2628C132.406 74.875 147.763 75.811 149.955 77.1803L149.72 78.0786C147.69 84.4068 128.423 83.3068 129.503 75.2628Z" fill="#FEF9EE"/>
<path d="M129.503 75.2625C134.597 79.9709 143.454 80.2747 149.72 78.0783C147.69 84.4065 128.423 83.3064 129.503 75.2625Z" fill="#6A2F15"/>
<path d="M134.207 65.1477C134.312 65.2378 134.436 65.3058 134.519 65.4179C136.053 67.5688 137.087 68.1703 139.457 69.3971C142.058 68.9827 144.171 68.2411 146.56 67.1557C147.115 66.9016 147.221 66.9848 147.809 67.0514L148.494 68.8664C146.031 69.9577 143.284 70.6925 140.725 71.5605C138.327 70.9231 135.452 70.4402 133.844 68.3977C133.43 66.8442 133.596 66.6608 134.207 65.1477Z" fill="#8B4125"/>
<path d="M129.691 46.5092C130.784 46.4504 131.969 46.3291 133.058 46.4329C134.239 46.546 134.873 46.9715 135.635 47.8427L135.373 48.6234C133.89 49.5373 132.181 49.1472 130.513 49.0057C129.204 49.1996 127.89 49.7978 126.553 49.7367C125.869 49.7055 125.965 49.6292 125.529 49.1844C126.585 47.8027 128.157 47.238 129.691 46.5092Z" fill="#A38D7B"/>
<path d="M149.352 48.4808C152.127 48.2308 155.476 48.4179 157.782 50.1989C158.77 50.9644 159.013 51.6146 159.124 52.8033C156.459 51.9427 150.74 51.4533 148.994 49.6709L149.352 48.4808Z" fill="#A38D7B"/>
<path d="M133.761 42.5402C134.951 42.4078 136.132 42.349 137.331 42.3362C140.799 42.2994 149.766 41.9915 152.261 44.4475C146.201 43.5966 139.687 44.3579 133.761 42.5402Z" fill="#8B4125"/>
<path d="M150.304 58.4489C151.875 58.3749 153.432 58.2651 154.934 58.8193C156.276 59.3123 157.034 60.1252 157.59 61.4081L157.066 61.9135L156.46 61.4935C153.616 60.3508 151.411 60.9968 148.535 60.5718C148.696 59.4171 149.422 59.1671 150.304 58.4489Z" fill="#492313"/>
<path d="M128.795 56.0654C129.76 56.0609 130.66 56.1137 131.565 56.4988C132.737 56.9992 133.885 57.9816 134.303 59.1565C133.205 59.5595 132.59 59.0531 131.519 58.6437C129.792 58.221 127.086 59.1 125.63 58.181C126.351 57.1269 127.683 56.6343 128.795 56.0654Z" fill="#38241C"/>
<path d="M130.766 68.0134C131.391 68.12 131.093 67.9882 131.625 68.4798C130.284 71.5015 126.65 72.8147 125.3 76.1764L125.02 76.4108C124.997 75.6434 124.96 74.8347 125.061 74.0701C125.369 71.6269 128.975 69.3239 130.766 68.0134Z" fill="#924627"/>
<path d="M136.715 38.39C136.968 38.3529 137.216 38.3186 137.469 38.2916C140.629 37.9547 148.296 37.8859 150.74 39.8663C146.767 40.0558 140.294 40.1761 136.715 38.39Z" fill="#8B4125"/>
<path d="M149.702 70.2971C151.632 70.9409 153.561 72.7651 154.443 74.6054C154.521 74.7607 154.585 74.9201 154.654 75.0764C155.477 76.8601 155.169 78.0383 154.755 79.8657C154.278 79.9585 154.25 79.8248 153.85 79.584C153.924 75.4361 152.119 73.4332 149.702 70.2971Z" fill="#924627"/>
<path d="M134.22 85.072C136.205 85.1906 138.143 85.7314 140.16 85.7746C140.872 85.7898 143.027 85.4415 143.569 85.6657C143.886 85.7976 144.129 86.0632 144.409 86.2621C143.183 86.8999 141.736 87.3907 140.339 87.5032C137.712 87.7164 136.09 86.7359 134.22 85.072Z" fill="#8B4125"/>
<path d="M149.39 63.8469C151.264 63.926 153.91 64.6772 155.431 65.7731C154.553 65.9174 153.616 66.0194 152.725 65.967C151.246 65.8797 150.345 64.8546 149.39 63.8469Z" fill="#8B4125"/>
<path d="M129.416 60.5518C130.463 60.9428 131.046 60.9345 131.611 61.9303L130.835 63.2839C129.916 63.2141 129.37 63.1015 128.534 62.7128L128.391 61.9849L129.416 60.5518Z" fill="#924627"/>
<path d="M97.6767 153.502C99.2845 152.945 99.2432 152.389 100.585 150.909C113.19 157.273 130.362 155.96 142.324 165.895C152.417 174.278 154.356 170.485 163.093 163.072C171.959 155.614 183.752 152.916 195.062 151.576C196.468 161.345 193.661 168.409 189.71 177.107L188.906 181.561C189.522 183.06 190.133 184.127 190.078 185.724C190.689 188.611 192.273 197.062 193.532 199.122L194.685 199.608L194.791 199.927L186.403 199.899L180.068 199.774C175.46 200.056 169.428 199.886 164.71 199.88L158.743 199.92L151.705 199.908L139.825 199.882L123.255 199.864L116.888 199.912C112.85 199.931 108.808 199.903 104.77 199.826L100.718 199.894L79.4988 199.948L79.4253 199.5L80.0914 196.981L81.0423 194.411C83.0958 189.134 86.2563 181.389 87.391 176.052L87.3635 175.624C92.2376 175.464 95.7656 162.639 97.0335 158.708C97.2035 156.812 97.3322 155.382 97.6767 153.502Z" fill="#E2768D"/>
<path d="M87.3634 175.624C92.2375 175.464 95.7655 162.639 97.0334 158.708C97.4009 161.686 97.4928 164.596 97.8006 167.601C98.1773 171.311 99.1145 176.011 99.0961 179.675C97.1667 182.6 93.2481 190.356 91.8883 191.895L91.824 192.058C90.9374 193.131 90.5056 193.99 89.8395 195.184L89.3801 195.342C86.3895 196.027 83.1324 196.917 80.0913 196.981L81.0422 194.411C83.0957 189.134 86.2562 181.389 87.3909 176.052L87.3634 175.624Z" fill="#CD6171"/>
<path d="M81.0422 194.411C85.3558 193.024 87.5517 190.659 91.8883 191.895L91.824 192.058C90.9374 193.131 90.5056 193.99 89.8395 195.184L89.3801 195.342C86.3895 196.027 83.1324 196.917 80.0913 196.981L81.0422 194.411Z" fill="#F89761"/>
<path d="M188.906 181.561C189.522 183.06 190.132 184.127 190.077 185.724C190.688 188.611 192.273 197.062 193.532 199.122L194.685 199.609L194.791 199.927L186.402 199.899L180.067 199.774C175.46 200.056 169.428 199.887 164.71 199.88C164.669 197.59 165.013 197.761 163.943 196.05C165.28 195.984 166.286 196.096 167.37 195.377C167.476 193.908 166.998 193.648 166.166 192.191L164.278 191.614C169.263 191.387 168.27 195.853 171.987 192.843C177.1 193.543 183.738 187.527 187.647 184.471L188.906 181.561Z" fill="#DF7788"/>
<path d="M180.067 199.774C181.253 198.357 187.22 195.391 189.228 194.857L189.967 195.097C189.834 197.151 187.519 198.289 186.402 199.899L180.067 199.774Z" fill="#FBA449"/>
<path d="M188.906 181.561C189.522 183.06 190.133 184.127 190.078 185.724C188.801 186.099 188.814 187.019 187.721 187.106L187.647 184.471L188.906 181.561Z" fill="#CD6171"/>
<path d="M186.412 187.834L187.174 188.604C187.183 189.218 187.174 189.644 186.871 190.198C185.19 193.266 181.556 195.2 178.382 196.271C177.651 195.664 177.669 195.697 177.545 194.756C179.245 192.459 184.009 190.148 186.412 187.834Z" fill="#DCA060"/>
<path d="M120.438 193.47C124.334 190.701 126.034 190.305 130.678 189.096C134.096 191.495 139.903 194.849 139.475 199.649L139.825 199.882L123.255 199.864C122.997 198.129 122.212 197.998 120.7 196.869C120.402 195.478 120.351 196.057 121.302 194.559L120.438 193.47Z" fill="#FBA449"/>
<path d="M121.303 194.559C122.658 195.073 125.547 196.246 126.875 196.459C131.933 197.267 134.878 196.96 139.476 199.649L139.825 199.882L123.255 199.864C122.998 198.13 122.212 197.998 120.701 196.869C120.402 195.478 120.352 196.057 121.303 194.559Z" fill="#E27C84"/>
<path d="M171.986 192.843L172.368 190.735C174.6 188.559 180.388 185.685 183.287 183.297C186.462 180.681 186.613 177.969 189.709 177.107L188.906 181.561L187.647 184.471C183.737 187.527 177.099 193.543 171.986 192.843Z" fill="#FBA449"/>
<path d="M89.8396 195.184C93.8546 195.675 98.1223 196.507 100.718 199.894L79.4988 199.948L79.4253 199.5L80.0914 196.98C83.1326 196.917 86.3896 196.027 89.3802 195.341L89.8396 195.184Z" fill="#E27C84"/>
<path d="M80.0914 196.98C83.1326 196.917 86.3896 196.026 89.3802 195.341C88.6728 196.513 87.5288 198.271 87.0419 199.482C84.993 199.51 81.3501 199.665 79.4253 199.5L80.0914 196.98Z" fill="#CD6171"/>
<path d="M91.8244 192.058C94.8747 193.235 103.093 197.124 104.77 199.826L100.718 199.894C98.1225 196.507 93.8549 195.675 89.8398 195.184C90.506 193.99 90.9378 193.131 91.8244 192.058Z" fill="#DCA060"/>
<path d="M163.653 190.051L163.997 191.572L164.278 191.614L166.166 192.191C166.997 193.648 167.475 193.908 167.369 195.376C166.285 196.096 165.279 195.984 163.942 196.05L161.122 195.161C161.057 194.433 160.997 194.518 160.671 193.814L159.289 193.372C161.641 192.657 162.298 192.06 163.653 190.051Z" fill="#FBA449"/>
<path d="M163.653 190.051L163.997 191.572L164.278 191.614L166.166 192.191C164.287 192.77 162.366 193.514 161.122 195.161C161.057 194.433 160.997 194.518 160.671 193.814L159.289 193.372C161.641 192.657 162.298 192.06 163.653 190.051Z" fill="#E27C84"/>
<path d="M151.705 199.908C152.647 197.179 153.488 195.002 156.823 195.761C158.293 196.958 158.582 198.077 158.743 199.921L151.705 199.908Z" fill="#FBA449"/>
<path d="M116.888 199.912C117.136 197.244 118.528 195.276 120.439 193.47L121.303 194.559C120.352 196.057 120.402 195.478 120.701 196.869C122.212 197.998 122.998 198.13 123.255 199.864L116.888 199.912Z" fill="#DCA060"/>
<path d="M159.289 193.372C157.861 191.235 158.127 189.516 160.378 188.327C162.284 188.552 161.935 188.692 163.653 190.051C162.298 192.06 161.641 192.657 159.289 193.372Z" fill="#DCA060"/>
<path d="M102.666 167.124C105.078 168.688 104.237 172.378 105.174 174.874C107.476 181.008 115.699 186.472 116.824 190.115L115.938 191.383C115.18 191.692 114.964 191.853 114.151 191.514C109.263 189.463 105.955 184.021 104.085 179.398C103.86 179.165 103.539 179.104 103.24 178.993C102.978 179.308 102.836 179.43 102.684 179.856C101.513 183.123 108.22 190.417 109.874 193.372C109.299 193.62 109.396 193.682 108.698 193.483C106.277 192.787 103.557 189.86 102.331 187.706C99.0184 181.874 100.975 173.251 102.666 167.124Z" fill="#FBA449"/>
<path d="M153.795 184.638C154.934 184.792 156.004 184.995 156.785 185.925C157.355 186.608 157.782 187.679 157.649 188.58C157.442 189.959 156.62 190.749 155.55 191.457C153.639 190.377 151.985 189.094 150.276 187.725C151.415 186.667 152.623 185.663 153.795 184.638Z" fill="#FBA449"/>
<path d="M145.08 193.26C146.357 193.579 147.552 193.734 148.494 194.721C148.374 196.04 147.919 196.289 147.065 197.264C145.636 197.235 144.502 197.39 143.408 196.456C143.578 195.067 144.286 194.367 145.08 193.26Z" fill="#FBA449"/>
<path d="M148.053 189.07C148.283 189.087 148.577 189.1 148.816 189.142C150.106 189.37 150.561 189.929 151.241 190.936C151.328 192.242 151.08 192.786 150.405 193.893C149.165 193.294 148.016 192.784 146.987 191.84C146.785 190.423 147.249 190.207 148.053 189.07Z" fill="#DCA060"/>
<path d="M95.6915 101.25C96.6286 100.818 99.8443 100.154 101.034 99.8821L104.172 105.78C105.352 107.928 108.205 109.185 108.619 112.105L111.177 114.825C112.409 116.001 113.415 117.048 114.889 117.938C124.132 123.694 132.952 124.561 139.218 131.178C140.472 133.014 140.675 133.514 141.488 135.581C142.746 137.791 144.074 140.255 145.549 142.302L147.947 142.636C149.251 139.59 149.614 138.609 150.253 135.373L151.461 131.223L154.465 131.082C157.653 131.078 165.642 129.516 167.03 130.139L168.472 132.609C170.204 131.842 176.079 130.533 178.239 130.032L179.084 132.608C181.441 132.37 182.065 132.147 184.316 131.394L184.776 131.406C186.181 130.605 186.586 130.664 188.244 130.471C188.896 132.215 189.558 133.907 190.082 135.694C190.734 138.314 191.042 139.273 192.107 141.748C193.233 145.174 194.156 148.072 195.061 151.576C183.751 152.916 171.959 155.614 163.093 163.072C154.355 170.485 152.416 174.278 142.324 165.895C130.361 155.96 113.19 157.273 100.584 150.909C99.8398 150.28 98.9577 149.899 98.0757 149.444L98.5626 146.016C97.6163 145.682 97.1569 145.9 96.0728 146.044L95.9671 145.866L93.8264 146.121C92.5171 147.676 92.6412 147.482 92.4758 149.919L92.2966 150.896C91.3181 151.411 91.1849 151.466 90.1237 151.789L88.9845 148.991L87.4041 148.34C86.0306 148.128 84.2758 147.614 82.8976 147.255C82.5071 146.527 81.8961 145.64 81.4367 144.925L81.253 144.238C80.7384 143.53 80.1642 142.267 79.7508 141.449C78.7355 141.316 77.9408 140.502 77.022 139.821L75.4509 141.219C73.8936 139.838 72.1387 139.043 70.2966 138.082C68.8358 136.484 68.064 136.068 66.2586 134.896L65.6201 135.038C64.977 134.189 64.4119 132.914 63.9111 131.932C64.784 130.387 65.6568 129.234 66.695 127.815C67.5127 126.425 68.5142 124.958 69.4008 123.597C72.9703 118.43 75.6852 114.571 80.0356 110.063C82.7781 107.685 84.5146 106.511 87.5006 104.52L92.1772 102.388L95.6915 101.25Z" fill="#DF7788"/>
<path d="M101.724 141.085C110.006 145.235 120.205 145.503 129.007 148.519C136.917 151.23 144.915 154.808 151.112 160.535C160.029 151.492 171.39 145.043 184.11 143.565C186.954 143.235 189.393 142.635 192.108 141.748C193.233 145.174 194.157 148.072 195.062 151.576C183.752 152.916 171.959 155.614 163.093 163.072C154.356 170.485 152.417 174.278 142.324 165.895C130.362 155.96 113.19 157.273 100.584 150.909C99.8403 150.28 98.9582 149.899 98.0762 149.444L98.5631 146.016L98.848 145.547L101.724 141.085Z" fill="#FAA2AD"/>
<path d="M114.89 117.938C124.133 123.694 132.953 124.561 139.219 131.178C135.094 131.464 131.745 130.856 127.684 130.294C121.165 128.881 116.277 128.848 110.59 125.338L108.367 126.192L108.289 125.389C108.606 123.325 108.753 121.815 108.895 119.729C111.325 120.675 111.105 120.197 112.57 122.022C113.604 120.475 114.063 119.585 114.89 117.938Z" fill="#DF7788"/>
<path d="M108.895 119.729C111.325 120.675 111.105 120.196 112.57 122.022L112.896 122.945C115.336 123.232 116.865 123.751 118.542 125.724L118.629 126.61C117.338 127.614 117.945 127.353 116.245 127.455C114.647 126.532 112.947 125.337 111.183 125.093L110.59 125.337L108.367 126.191L108.289 125.389C108.606 123.325 108.753 121.815 108.895 119.729Z" fill="url(#paint0_linear_2190_7292)"/>
<path d="M104.172 105.781C105.353 107.928 108.206 109.185 108.619 112.105L111.178 114.825C112.409 116.001 113.415 117.049 114.89 117.938C114.063 119.585 113.604 120.475 112.57 122.022C111.105 120.197 111.325 120.675 108.895 119.729C108.753 121.815 108.605 123.326 108.289 125.39C107.356 124.031 107.861 124.371 106.433 123.841L105.698 124.337C105.693 124.722 105.661 125.557 105.716 125.894C102.923 119.84 98.8022 119.731 95.8438 114.824L96.9555 113.355C100.295 110.521 100.111 108.341 104.172 105.781Z" fill="#FBA449"/>
<path d="M108.619 112.105L111.178 114.825C112.409 116.001 113.415 117.049 114.89 117.938C114.063 119.585 113.604 120.475 112.57 122.022C111.105 120.197 111.325 120.675 108.895 119.729C108.753 121.815 108.605 123.325 108.289 125.39C107.356 124.031 107.861 124.371 106.433 123.841L105.698 124.337C105.693 124.721 105.661 125.557 105.716 125.894C102.923 119.84 98.8022 119.731 95.8438 114.824L96.9555 113.355C98.398 113.932 99.7532 114.705 100.984 115.652C102.096 116.501 103.313 117.731 104.315 118.537C107.581 121.16 105.546 120.709 105.799 122.44L106.681 122.6C109.088 120.036 107.021 115.099 108.619 112.105Z" fill="#E27C84"/>
<path d="M111.178 114.825C112.409 116.001 113.415 117.048 114.89 117.938C114.063 119.584 113.604 120.474 112.57 122.022C111.105 120.196 111.325 120.675 108.895 119.729C109.506 118.162 110.439 116.363 111.178 114.825Z" fill="#F89761"/>
<path d="M110.589 125.337C116.277 128.848 121.165 128.881 127.683 130.294L126.342 131.054L126.153 131.896C127.578 133.793 128.225 133.669 129.461 135.056C125.648 134.616 109.795 132.787 107.695 130.328C107.443 128.742 107.902 127.745 108.366 126.192L110.589 125.337Z" fill="#FB9F9B"/>
<path d="M82.3787 140.083L82.613 140.157L84.8869 140.979C88.0659 142.188 89.8575 142.859 92.8711 144.567L93.0272 144.343L93.8266 146.121C92.5173 147.676 92.6414 147.481 92.476 149.919L92.2968 150.896C91.3183 151.411 91.1851 151.466 90.124 151.789L88.9847 148.991L87.4044 148.34C86.0308 148.127 84.276 147.614 82.8978 147.255C82.5073 146.527 81.8963 145.64 81.4369 144.925L81.2532 144.238C80.7387 143.53 80.1644 142.267 79.751 141.449C80.4584 140.509 81.2302 140.434 82.3787 140.083Z" fill="#DF7788"/>
<path d="M82.3787 140.083L82.613 140.157L84.8869 140.979C84.6986 142.722 84.9788 142.945 83.9544 144.056C83.3664 144.071 81.7769 144.101 81.2532 144.238C80.7387 143.53 80.1644 142.267 79.751 141.449C80.4584 140.509 81.2302 140.434 82.3787 140.083Z" fill="#E2768D"/>
<path d="M93.0279 144.343L93.8272 146.122C92.518 147.676 92.6421 147.482 92.4767 149.919L92.2975 150.896C91.319 151.411 91.1858 151.466 90.1246 151.789L88.9854 148.991C90.607 147.681 92.3297 146.529 92.8717 144.567L93.0279 144.343Z" fill="#E27C84"/>
<path d="M82.8979 147.255L83.6789 146.122C85.6037 145.995 86.89 146.08 88.4794 147.179C88.0109 148.181 88.3646 147.81 87.4045 148.34C86.0309 148.128 84.2761 147.614 82.8979 147.255Z" fill="#FAA2AD"/>
<path d="M154.465 131.082C157.654 131.078 165.642 129.516 167.03 130.139L168.472 132.609L167.076 133.892L165.495 134.501C162.252 135.828 160.166 135.672 156.661 135.501C154.433 135.362 152.486 135.362 150.253 135.373L151.461 131.223L154.465 131.082Z" fill="#FAA2AD"/>
<path d="M151.461 131.223L154.465 131.082L153.625 132.23L153.776 133.123C155.021 133.817 155.067 133.836 156.51 133.923L156.661 135.501C154.433 135.362 152.486 135.362 150.253 135.373L151.461 131.223Z" fill="#FB9F9B"/>
<path d="M156.51 133.923C159.992 132.897 161.495 132.311 164.871 134.146C165.082 134.26 165.289 134.379 165.496 134.501C162.253 135.829 160.167 135.672 156.662 135.502L156.51 133.923Z" fill="#F89761"/>
<path d="M80.0356 110.063C82.7782 107.685 84.5147 106.511 87.5007 104.52C89.1636 106.517 90.9093 108.406 91.9797 110.772L91.8281 111.378C90.8634 110.989 89.8895 110.627 88.9064 110.294L88.346 110.728C88.7319 113.43 90.7118 112.494 90.7716 114.857C88.0979 118.196 81.7951 112.847 80.0356 110.063Z" fill="#FBA449"/>
<path d="M66.695 127.814C71.2292 128.758 72.9886 132.732 73.2964 136.986L75.2763 138.44L77.022 139.821L75.4509 141.219C73.8936 139.838 72.1387 139.043 70.2966 138.081C68.8358 136.484 68.064 136.068 66.2586 134.896L65.6201 135.038C64.977 134.189 64.4119 132.914 63.9111 131.932C64.784 130.387 65.6568 129.234 66.695 127.814Z" fill="#E27C84"/>
<path d="M66.2588 134.897C68.7624 134.326 71.0456 135.808 73.2966 136.986L75.2765 138.441L77.0222 139.822L75.4511 141.22C73.8938 139.839 72.1389 139.043 70.2968 138.082C68.836 136.484 68.0642 136.068 66.2588 134.897Z" fill="#DC5F5A"/>
<path d="M95.8435 114.824C98.8019 119.731 102.923 119.84 105.716 125.894C104.99 126.699 104.88 126.716 103.993 127.275C98.586 127.428 92.3567 118.902 95.8435 114.824Z" fill="#FBA449"/>
<path d="M127.684 130.293C131.745 130.856 135.093 131.463 139.219 131.178C140.473 133.014 140.675 133.514 141.488 135.581C137.087 135.994 133.738 135.649 129.461 135.056C128.226 133.669 127.578 133.793 126.154 131.896L126.342 131.053L127.684 130.293Z" fill="#FAA2AD"/>
<path d="M69.4011 123.597C74.7621 126.586 76.0897 132.088 76.4389 137.877L75.2766 138.441L73.2967 136.986C72.9889 132.732 71.2295 128.759 66.6953 127.815C67.513 126.426 68.5145 124.958 69.4011 123.597Z" fill="#DCA060"/>
<path d="M82.6133 140.157C85.9392 136.444 91.631 140.35 95.1591 142.261C94.5527 142.832 93.5237 143.747 93.0275 144.343L92.8714 144.567C89.8578 142.859 88.0662 142.188 84.8872 140.979L82.6133 140.157Z" fill="#DCA060"/>
<path d="M168.473 132.609C170.205 131.842 176.08 130.533 178.239 130.032L179.085 132.608C174.417 133.445 171.142 135.517 167.076 133.892L168.473 132.609Z" fill="#F89761"/>
<path d="M92.1777 102.388L95.692 101.25C96.8405 103.156 97.9063 104.502 97.3734 106.713L96.5786 107.351C93.7948 106.786 93.4365 104.858 92.1777 102.388Z" fill="#DCA060"/>
<path d="M145.549 142.302L147.947 142.636C147.708 144.225 147.47 144.44 146.454 145.711C144.709 146.527 145.457 146.422 143.615 146.182C142.012 145.016 142.301 145.566 141.69 143.942L142.196 142.875C144.047 141.908 143.22 142.126 145.549 142.302Z" fill="#FBA449"/>
<path d="M184.776 131.406C186.182 130.604 186.586 130.664 188.245 130.471C188.897 132.215 189.559 133.906 190.082 135.694L189.265 136.972C189.003 136.401 188.493 135.98 187.882 135.827C187.271 135.675 186.628 135.806 186.122 136.186C186.168 134.34 186.099 132.769 184.776 131.406Z" fill="#E27C84"/>
<path d="M96.0961 141.48L97.7912 141.234C98.0392 142.773 98.6686 144.312 98.8478 145.547L98.563 146.016C97.6166 145.682 97.1572 145.9 96.0731 146.044L95.9674 145.866L93.8267 146.121L93.0273 144.343C93.5235 143.747 94.5525 142.832 95.1589 142.261L95.9628 142.066L96.0961 141.48Z" fill="#DC5F5A"/>
<path d="M95.1589 142.261L95.9628 142.066L95.9674 145.866L93.8267 146.121L93.0273 144.343C93.5235 143.747 94.5525 142.832 95.1589 142.261Z" fill="#F89761"/>
<path d="M96.0963 141.479C95.6553 138.569 94.8835 134.849 95.2786 132.013L95.3153 131.992L96.3581 132.363C97.2952 134.702 98.0578 138.762 97.7914 141.234L96.0963 141.479Z" fill="#CD6171"/>
<path d="M186.122 136.186C186.627 135.807 187.27 135.675 187.881 135.827C188.492 135.98 189.002 136.401 189.264 136.972C189.723 137.962 189.337 139.137 188.382 139.664C187.426 140.191 186.227 139.891 185.635 138.977C185.042 138.062 185.253 136.844 186.122 136.186Z" fill="#DCA060"/>
<path d="M76.4391 137.877C78.2904 138.319 80.9411 138.851 82.379 140.084C81.2305 140.434 80.4587 140.509 79.7513 141.449C78.736 141.316 77.9413 140.502 77.0225 139.821L75.2769 138.441L76.4391 137.877Z" fill="#CD6171"/>
<path d="M133.788 140.817C134.193 140.872 134.597 140.929 134.997 140.992C136.687 141.254 138.24 141.425 139.306 142.887C139.544 144.446 139.237 145.07 138.704 146.515C138.414 146.561 138.258 146.602 137.978 146.594C136.921 146.567 135.433 146.007 134.744 145.177C133.595 143.784 133.669 142.508 133.788 140.817Z" fill="#DCA060"/>
<path d="M167.531 138.572C168.045 138.63 168.596 138.688 169.083 138.868C170.135 139.255 170.691 140.13 171.187 141.071C171.385 142.428 171.252 143.075 170.586 144.271C169.929 144.141 169.24 144.014 168.619 143.767C167.475 143.313 166.924 142.612 166.41 141.541C166.451 140.008 166.621 139.83 167.531 138.572Z" fill="#DCA060"/>
<path d="M154.181 140.92C155.541 141.437 156.831 142.404 157.438 143.737C157.383 145.173 156.983 145.511 156.184 146.671C156.06 146.63 155.931 146.592 155.807 146.548C154.406 146.05 153.101 145.304 152.467 143.928C152.66 142.399 153.184 142.036 154.181 140.92Z" fill="#DCA060"/>
<path d="M161.191 139.531C161.554 139.649 161.559 139.637 161.958 139.847C163.093 140.447 163.713 141.069 164.145 142.27C163.993 143.824 163.764 144.179 162.877 145.484C161.527 144.784 160.034 143.991 159.418 142.542C159.62 141.048 160.245 140.611 161.191 139.531Z" fill="#FBA449"/>
<path d="M127.757 140.013C128.919 139.565 130.229 140.095 130.752 141.224C131.276 142.353 130.83 143.694 129.742 144.291C128.97 144.714 128.024 144.671 127.293 144.18C126.558 143.689 126.163 142.831 126.259 141.955C126.356 141.078 126.935 140.33 127.757 140.013Z" fill="#DCA060"/>
<path d="M180.655 135.807C181.951 136.173 182.562 136.373 183.389 137.463C183.765 138.986 183.2 140.048 182.654 141.445C181.28 140.898 180.26 140.561 179.429 139.271C179.424 137.713 179.893 137.127 180.655 135.807Z" fill="#DCA060"/>
<path d="M105.403 133.918L106.294 134.326C107.048 135.166 107.608 136.045 107.585 137.224C107.558 138.547 107.222 138.956 106.345 139.821C105.072 139.246 104.397 139.103 103.584 137.879C103.598 136.33 104.581 135.171 105.403 133.918Z" fill="#DCA060"/>
<path d="M174.362 137.691C175.147 137.358 176.057 137.501 176.705 138.059C177.352 138.617 177.628 139.494 177.412 140.322C177.201 141.15 176.539 141.786 175.703 141.962C174.568 142.202 173.438 141.541 173.094 140.435C172.745 139.33 173.296 138.142 174.362 137.691Z" fill="#DCA060"/>
<path d="M121.941 138.488C122.23 138.511 122.304 138.509 122.625 138.584C123.728 138.841 123.921 138.991 124.532 139.947C124.555 141.5 123.875 142.452 123.085 143.712C121.766 143.477 121.252 143.349 120.448 142.266C120.402 140.72 121.16 139.75 121.941 138.488Z" fill="#DCA060"/>
<path d="M110.695 136.654C111.867 136.385 113.043 137.096 113.351 138.261C113.658 139.425 112.988 140.624 111.835 140.972C111.054 141.208 110.208 140.998 109.625 140.426C109.041 139.854 108.821 139.009 109.041 138.224C109.267 137.438 109.896 136.837 110.695 136.654Z" fill="#FBA449"/>
<path d="M116.369 137.866C117.49 137.681 118.565 138.394 118.827 139.499C119.093 140.603 118.459 141.725 117.375 142.067C116.603 142.311 115.758 142.103 115.189 141.528C114.619 140.953 114.417 140.108 114.665 139.337C114.913 138.566 115.57 137.998 116.369 137.866Z" fill="#DCA060"/>
<path d="M51.077 103.443C50.9392 100.398 50.4431 96.2811 50.1674 93.1271C49.7264 88.0547 53.7782 81.6672 57.9356 87.2694C59.0335 91.9366 59.0427 97.5801 60.0029 101.58C62.7638 113.049 64.4451 114.011 61.1835 125.605C62.0426 127.701 63.0072 129.846 63.9122 131.932C64.413 132.915 64.9781 134.189 65.6212 135.038L66.2597 134.896C68.0651 136.068 68.8369 136.484 70.2977 138.082C72.1398 139.043 73.8947 139.838 75.452 141.22L78.4151 144.597L79.8622 146.752L80.9049 147.915C81.7548 146.419 81.4929 146.892 81.4378 144.925C81.8972 145.64 82.5082 146.527 82.8987 147.255C84.2769 147.614 86.0317 148.128 87.4052 148.34L88.9856 148.991L90.1248 151.789C91.186 151.466 91.3192 151.411 92.2977 150.896L92.4769 149.919C92.6423 147.482 92.5182 147.676 93.8274 146.122L95.9682 145.866L96.0739 146.044C97.158 145.901 97.6174 145.682 98.5637 146.016L98.0768 149.444C98.9588 149.899 99.8408 150.28 100.585 150.909C99.2436 152.389 99.285 152.946 97.6771 153.502C97.3326 155.382 97.2039 156.812 97.034 158.709C95.766 162.639 92.238 175.464 87.3639 175.624L87.3914 176.052C86.0087 177.777 84.8648 179.298 83.2156 180.787L80.8728 182.902L78.4977 184.624L73.2011 187.424L69.7465 188.849C54.9634 193.968 41.8984 183.995 39.2662 169.248C37.2632 162.653 37.594 157.104 39.5924 150.619C40.2998 148.132 40.5203 147.533 41.7285 145.258C41.7653 141.972 41.7101 138.674 42.1787 135.424L42.197 135.16C41.9903 134.932 39.1192 132.352 39.1284 132.376C35.4671 125.488 33.7857 110.79 40.0931 104.937C42.2568 102.93 47.9991 103.224 51.077 103.443Z" fill="#A85937"/>
<path d="M81.4378 144.925C81.8972 145.64 82.5082 146.527 82.8987 147.255C84.2768 147.614 86.0316 148.127 87.4052 148.34L88.9855 148.991L90.1248 151.789C91.186 151.466 91.3192 151.411 92.2977 150.896L92.4768 149.919C92.6422 147.481 92.5182 147.676 93.8274 146.121L95.9682 145.866L96.0738 146.044C97.158 145.9 97.6174 145.682 98.5637 146.016L98.0767 149.444C98.9587 149.899 99.8408 150.28 100.585 150.909C99.2436 152.388 99.2849 152.945 97.6771 153.502C97.3325 155.382 97.2039 156.812 97.0339 158.708C95.766 162.639 92.238 175.464 87.3639 175.623L87.3914 176.052C86.0087 177.777 84.8648 179.298 83.2156 180.787L80.8727 182.902L78.4977 184.624L73.201 187.424L69.7464 188.849C54.9634 193.968 41.8984 183.995 39.2661 169.247C49.2486 179.585 52.9466 176.661 64.4175 171.382C65.5246 170.871 66.03 172.808 67.8675 172.683C68.2672 171.477 67.8445 169.036 67.7021 167.654C71.8642 161.87 73.3204 156.903 74.106 150.032C73.5685 148.533 73.6236 148.311 73.5961 146.682L74.7078 147.144C76.7061 146.662 76.6832 146.187 78.415 144.597L79.8621 146.752L80.9049 147.915C81.7547 146.419 81.4929 146.891 81.4378 144.925Z" fill="#DF7788"/>
<path d="M71.6608 173.747L71.9732 173.066C74.3574 172.232 77.2285 172.209 79.7276 172.347C83.2465 172.558 84.3306 173.266 87.2386 175.302L87.3626 175.624L87.3901 176.052C86.0074 177.777 84.8635 179.298 83.2143 180.787L80.8715 182.902L78.4964 184.624L73.1998 187.424C72.0651 183.723 69.3638 182.493 69.3546 181.381C69.3363 178.737 71.0957 179.207 69.6211 175.209L71.0682 174.696C71.1509 174.32 71.3622 173.985 71.6608 173.747Z" fill="#E27C84"/>
<path d="M79.7287 172.347C83.2476 172.558 84.3317 173.266 87.2396 175.301L87.3637 175.624L87.3912 176.052C86.0084 177.777 84.8646 179.298 83.2154 180.787C81.9934 178.889 79.6781 177.9 77.6568 176.805C76.807 175.452 76.6278 175.219 76.1362 173.725C77.032 172.62 78.0335 172.737 79.7287 172.347Z" fill="#FBA449"/>
<path d="M78.4969 184.624C77.5138 183.532 77.298 183.346 76.0668 182.541C74.7484 183.115 75.8555 183.364 74.8999 185.446C73.8525 184.75 73.8571 184.553 73.3242 183.344C73.6917 178.402 78.3683 179.596 80.872 182.902L78.4969 184.624Z" fill="#DCA060"/>
<path d="M71.6614 173.747C72.2999 173.243 73.2095 173.272 73.8159 173.815C74.4177 174.358 74.5464 175.258 74.1145 175.947C73.6781 176.636 72.8144 176.913 72.061 176.604C71.3122 176.295 70.8896 175.49 71.0688 174.696C71.1515 174.32 71.3628 173.985 71.6614 173.747Z" fill="#DCA060"/>
<path d="M96.0728 146.044C97.1569 145.901 97.6163 145.682 98.5626 146.016L98.0757 149.444C98.9577 149.899 99.8398 150.28 100.584 150.909C99.2426 152.389 99.2839 152.946 97.676 153.502C97.3315 155.382 97.2028 156.812 97.0329 158.709C95.765 162.639 92.2369 175.464 87.3628 175.624L87.2388 175.302C90.6336 170.047 91.6443 167.95 93.8309 162.324L94.7314 157.639C91.9199 155.181 92.4712 153.44 88.6537 152.959L88.6767 152.747C89.5173 152.46 89.476 152.416 90.1237 151.789C91.1849 151.467 91.3181 151.411 92.2966 150.896L92.4758 149.919C92.6412 147.482 92.5171 147.677 93.8264 146.122L95.9671 145.867L96.0728 146.044Z" fill="#C9403F"/>
<path d="M90.1239 151.789C91.1851 151.467 91.3183 151.411 92.2968 150.896L92.4759 149.919C95.3563 151.085 94.4008 148.749 95.3425 150.712L95.6227 151.331C95.5446 152.537 95.4941 153.813 95.3287 155.002C95.1128 155.867 94.8693 156.763 94.7315 157.639C91.9201 155.181 92.4713 153.44 88.6538 152.959L88.6768 152.747C89.5175 152.46 89.4761 152.416 90.1239 151.789Z" fill="#E27C84"/>
<path d="M95.3291 155.002C93.6983 154.166 93.3216 152.71 94.0152 151.083L95.3429 150.712L95.6231 151.33C95.545 152.536 95.4945 153.813 95.3291 155.002Z" fill="#FB9F9B"/>
<path d="M95.9679 145.866L96.0735 146.044C96.0092 147.196 95.9036 150.409 95.6233 151.33L95.3431 150.712C94.4014 148.749 95.3569 151.085 92.4766 149.919C92.6419 147.481 92.5179 147.676 93.8271 146.121L95.9679 145.866Z" fill="#CD6171"/>
<path d="M97.6768 153.502L98.0764 149.444C98.9584 149.899 99.8405 150.28 100.585 150.909C99.2433 152.389 99.2846 152.945 97.6768 153.502Z" fill="#E27C84"/>
<path d="M69.6214 175.209C71.0961 179.207 69.3366 178.737 69.3549 181.381C69.3641 182.493 72.0654 183.723 73.2001 187.424L69.7455 188.849C66.8146 183.573 63.5529 179.442 69.6214 175.209Z" fill="#FBA449"/>
<path d="M82.8979 147.255C84.2761 147.614 86.0309 148.128 87.4045 148.34L88.9848 148.991L90.1241 151.789C89.4763 152.416 89.5177 152.46 88.677 152.747L88.654 152.958L88.2727 154.019L85.2867 154.033L84.2623 151.15C83.9637 149.671 83.4722 148.639 82.8979 147.255Z" fill="#E2768D"/>
<path d="M84.2627 151.15C86.3162 151.458 86.8858 151.829 88.6774 152.747L88.6544 152.958L88.2731 154.019L85.2871 154.033L84.2627 151.15Z" fill="#E27C84"/>
<path d="M73.5952 146.682L74.7069 147.144C76.7052 146.662 76.6823 146.187 78.4142 144.597L79.8612 146.752C79.2824 148.445 78.9884 149.856 77.771 151.126C75.9059 151.741 75.5706 151.451 74.1051 150.032C73.5676 148.533 73.6228 148.311 73.5952 146.682Z" fill="#FBA449"/>
<path d="M88.6542 152.958C92.4717 153.439 91.9205 155.181 94.7319 157.639L93.8315 162.323C91.3416 159.12 90.2988 157.541 88.2729 154.019L88.6542 152.958Z" fill="#F89761"/>
<path d="M81.4372 144.926C81.8966 145.641 82.5076 146.527 82.8981 147.255C83.4723 148.639 83.9638 149.671 84.2624 151.15L85.2869 154.033L84.9745 156.022L84.4416 156.216C83.5366 155.12 81.8277 149.95 80.9043 147.915C81.7542 146.419 81.4923 146.892 81.4372 144.926Z" fill="#CD6171"/>
<path d="M65.6209 135.038L66.2594 134.896C68.0648 136.068 68.8366 136.484 70.2974 138.081C72.1396 139.043 73.8944 139.838 75.4517 141.219L78.4148 144.597C76.6829 146.187 76.7059 146.662 74.7075 147.144L73.5959 146.682C73.6234 148.311 73.5683 148.533 74.1058 150.032C73.3202 156.903 71.8639 161.87 67.7019 167.654C67.8443 169.036 68.2669 171.477 67.8673 172.683C66.0297 172.808 65.5244 170.871 64.4173 171.382C52.9464 176.661 49.2484 179.585 39.2659 169.247C37.263 162.653 37.5938 157.103 39.5921 150.619L39.6242 150.977C40.3409 159.824 38.4161 168.777 50.5714 169.966C61.9504 170.463 70.7109 155.256 69.4935 145.192C68.9606 140.804 67.6468 138.958 65.6209 135.038Z" fill="#F9B725"/>
<path d="M70.2969 138.082C72.139 139.043 73.8939 139.838 75.4512 141.219L78.4142 144.597C76.6824 146.187 76.7053 146.662 74.707 147.144L73.5953 146.682C73.1451 143.322 71.8083 141.051 70.2969 138.082Z" fill="#F89761"/>
<path d="M39.5913 150.619C40.2988 148.132 40.5193 147.533 41.7275 145.258C42.1639 154.807 43.5329 162.746 50.5706 169.966C38.4153 168.777 40.3401 159.824 39.6234 150.977L39.5913 150.619Z" fill="#FBA449"/>
<path d="M56.92 126.917C60.7834 118.311 46.8365 122.63 42.6836 120.498L42.7158 120.144C46.694 119.536 55.3994 120.849 57.3748 119.482C61.5368 110.078 45.6375 114.92 42.6377 111.859C46.8227 111.761 54.8298 113.573 57.2967 111.875C58.6886 108.804 55.8267 105.553 53.0841 104.481C52.4272 104.226 51.7657 103.988 51.0996 103.77C51.9448 103.249 53.7502 103.331 54.6782 103.543C55.868 103.811 56.8833 104.583 57.4621 105.657C58.6381 107.803 59.6901 125.216 57.3197 127.454L56.92 126.917Z" fill="#8B4125"/>
<path d="M56.9194 126.917L57.3191 127.454C57.705 137.486 49.5739 137.503 42.1777 135.424L42.1961 135.159C44.7732 134.033 57.6269 136.849 55.7066 128.86L54.7235 128.362C52.3255 128.886 45.8207 129.302 43.7397 128.144C45.8115 125.847 52.7252 129.277 56.9194 126.917Z" fill="#924627"/>
<path d="M179.098 104.321C183.54 106.306 187.753 107.938 191.382 111.263C193.293 112.77 193.826 113.149 195.31 115.063L198.25 119.008C200.216 121.908 201.76 124.386 203.055 127.687C205.063 131.964 209.79 142.906 210.823 147.431C212.569 151.7 215.619 159.21 216.579 163.675C219.928 172.63 223.507 185.468 224.747 194.988C224.977 196.623 225.239 198.311 225.418 199.947L220.503 199.884L201.227 199.88L197.143 199.957L194.791 199.927L194.685 199.609L193.532 199.122C192.273 197.062 190.688 188.611 190.077 185.724C190.133 184.127 189.522 183.06 188.906 181.561L189.71 177.107C193.661 168.41 196.467 161.345 195.062 151.576C194.157 148.072 193.233 145.174 192.108 141.749C191.042 139.273 190.734 138.314 190.082 135.695C189.558 133.907 188.897 132.215 188.244 130.472C186.586 130.665 186.182 130.605 184.776 131.407L184.317 131.394C182.066 132.147 181.441 132.37 179.084 132.608L178.239 130.032C176.08 130.533 170.204 131.842 168.472 132.609L167.03 130.139C165.643 129.516 157.654 131.078 154.466 131.082L151.461 131.223C157.208 120.129 172.515 124.986 179.098 104.321Z" fill="#DF7788"/>
<path d="M197.336 193.591C207.231 188.966 215.876 186.643 224.747 194.988C224.977 196.623 225.239 198.311 225.418 199.947L220.502 199.884L201.227 199.88L197.143 199.957L194.791 199.928L194.685 199.609C194.772 198.167 194.52 197.062 194.294 195.643C195.195 195.057 196.127 194.519 197.055 193.968L197.336 193.591Z" fill="#F9B725"/>
<path d="M201.227 199.88C206.67 196.079 215.155 195.756 220.502 199.884L201.227 199.88Z" fill="#9D5231"/>
<path d="M197.055 193.968C197.133 195.228 197.501 199.009 197.143 199.957L194.791 199.927L194.685 199.608C194.772 198.167 194.52 197.062 194.294 195.643C195.195 195.057 196.127 194.518 197.055 193.968Z" fill="#FBA449"/>
<path d="M188.686 129.916L190.372 130.528C190.519 132.562 195.37 144.427 196.546 148.81L197.442 154.131L197.763 157.071L197.938 160.218L197.285 162.122L196.514 165.392C194.8 170.896 193.013 175.075 190.463 180.251C191.41 182.847 192.981 186.682 192.866 189.376L193.477 188.388C194.892 188.84 194.364 188.876 195.7 188.531C196.752 190.334 196.904 191.555 197.336 193.59L197.056 193.968C196.128 194.518 195.195 195.057 194.295 195.643C194.52 197.062 194.773 198.167 194.685 199.608L193.532 199.122C192.273 197.062 190.689 188.611 190.078 185.724C190.133 184.127 189.522 183.06 188.906 181.561L189.71 177.107C193.661 168.409 196.468 161.345 195.062 151.576C194.157 148.072 193.234 145.174 192.108 141.748C191.042 139.273 190.735 138.314 190.082 135.694C189.558 133.907 188.897 132.215 188.245 130.471L188.686 129.916Z" fill="#C9403F"/>
<path d="M192.866 189.376L193.477 188.388C194.892 188.84 194.364 188.876 195.701 188.531C196.753 190.334 196.904 191.555 197.336 193.59L197.056 193.968C196.128 194.518 195.195 195.056 194.295 195.643C193.845 193.561 193.344 191.456 192.866 189.376Z" fill="#CD6171"/>
<path d="M196.513 165.392L198.204 166.164C198.337 166.654 198.53 167.267 198.608 167.755C197.914 172.74 197.317 177.738 196.821 182.747C199.242 180.641 202.384 177.482 205.315 176.556L205.944 176.752C203.413 178.701 201.851 179.523 199.862 182.015C201.474 181.545 202.967 181.588 204.644 181.525C202.678 182.406 199.779 183.515 198.282 184.921L198.185 185.592L198.801 186.008C197.133 186.907 196.825 187.03 195.7 188.531C194.363 188.876 194.891 188.84 193.476 188.388L192.866 189.376C192.98 186.682 191.409 182.847 190.463 180.251C193.012 175.075 194.8 170.896 196.513 165.392Z" fill="#CD6171"/>
<path d="M199.862 182.015C201.474 181.544 202.967 181.588 204.644 181.525C202.678 182.406 199.779 183.515 198.282 184.921L198.185 185.592L198.801 186.008C197.133 186.906 196.825 187.03 195.7 188.531C194.363 188.876 194.891 188.84 193.477 188.388C194.878 185.605 197.432 183.909 199.862 182.015Z" fill="#F89761"/>
<path d="M184.211 124.411L186.012 124.501L186.467 124.802C187.082 125.98 187.271 126.343 188.075 127.389L188.249 127.354L188.686 129.916L188.245 130.471C186.586 130.664 186.182 130.605 184.776 131.407L184.317 131.394C182.066 132.147 181.441 132.37 179.084 132.608L178.239 130.032L178.281 129.755C177.895 128.29 178.248 127.632 178.685 126.174C181 125.128 181.712 124.738 184.211 124.411Z" fill="#E2768D"/>
<path d="M184.211 124.411L184.505 125.477C182.819 127.114 181.767 127.251 180.146 129.012C179.374 129.686 179.277 129.613 178.281 129.755C177.895 128.29 178.248 127.632 178.685 126.174C181 125.128 181.712 124.738 184.211 124.411Z" fill="#FAA2AD"/>
<path d="M180.145 129.012L180.857 129.875C181.836 129.902 181.923 129.965 182.865 129.609L183.94 129.97L184.316 131.394C182.065 132.147 181.441 132.37 179.084 132.608L178.239 130.032L178.28 129.755C179.277 129.613 179.373 129.686 180.145 129.012Z" fill="#FAA2AD"/>
<path d="M188.074 127.389L188.249 127.354L188.685 129.916L188.244 130.472C186.586 130.665 186.181 130.605 184.776 131.407L184.316 131.394L183.94 129.97L182.865 129.609C184.202 128.352 186.278 127.928 188.074 127.389Z" fill="#FAA2AD"/>
<path d="M199.145 162.242L199.614 162.251C203.56 162.291 206.21 159.866 208.002 161.438C207.294 164.39 202.058 169.105 198.837 167.888L198.608 167.755C198.529 167.267 198.336 166.654 198.203 166.164L196.513 165.392L197.284 162.122L199.145 162.242Z" fill="#FBA449"/>
<path d="M197.284 162.122L199.145 162.242C199.554 165.487 199.026 165.214 198.837 167.888L198.608 167.755C198.529 167.267 198.336 166.654 198.203 166.164L196.513 165.392L197.284 162.122Z" fill="#DCA060"/>
<path d="M198.25 119.008C200.217 121.908 201.76 124.386 203.056 127.688C200.809 129.35 197.653 132.317 194.837 131.467C194.171 129.689 199.201 126.173 199.1 124.528L196.372 123.888L196.009 123.248C196.284 121.553 197.258 120.453 198.25 119.008Z" fill="#FBA449"/>
<path d="M210.823 147.431C212.569 151.7 215.619 159.21 216.58 163.675C210.69 160.88 209.744 153.161 210.823 147.431Z" fill="#FBA449"/>
<path d="M204.644 181.525C209.936 181.229 211.346 182.199 216.028 184.755C207.984 183.892 206.803 184.233 198.801 186.008L198.185 185.592L198.282 184.921C199.779 183.515 202.678 182.406 204.644 181.525Z" fill="#DCA060"/>
<path d="M196.545 148.81C199.812 149.175 202.361 149.466 205.186 151.212L205.581 152.081C203.753 154.127 200.303 153.921 197.441 154.131L196.545 148.81Z" fill="#FBA449"/>
<path d="M178.684 126.174C178.248 127.632 177.894 128.29 178.28 129.755L178.239 130.032C176.08 130.533 170.204 131.842 168.472 132.609L167.03 130.139C170.902 129.541 174.398 127.391 178.684 126.174Z" fill="#FB9F9B"/>
<path d="M195.31 115.063C194.598 116.983 194.423 118.254 192.204 118.494C189.747 116.691 190.647 113.703 191.382 111.263C193.293 112.77 193.826 113.149 195.31 115.063Z" fill="#FBA449"/>
<path d="M186.012 124.501C185.548 122.867 185.406 122.668 185.654 121.043C186.71 119.897 186.154 120.213 187.721 119.946C189.54 120.625 188.98 120.17 190.059 121.558C189.774 123.721 188.419 124.143 186.467 124.802L186.012 124.501Z" fill="#DCA060"/>
<path d="M188.249 127.354C189.604 126.102 188.933 126.45 190.835 126.107C192.314 126.732 191.813 126.3 192.617 127.765C192.314 129.167 191.882 130.043 190.371 130.528L188.685 129.916L188.249 127.354Z" fill="#FBA449"/>
<path d="M197.763 157.071C199.665 156.845 201.406 156.379 203.046 157.174L203.257 157.96C201.796 159.691 200.11 159.844 197.937 160.218L197.763 157.071Z" fill="#FBA449"/>
<path d="M185.235 111.455C186.255 112.15 187.04 113.037 187.445 114.236C187.84 115.421 187.711 116.09 187.27 117.204C186.857 117.127 186.443 117.051 186.034 116.947C184.707 116.608 184.298 116.125 183.655 115.002C183.71 113.459 184.344 112.643 185.235 111.455Z" fill="#FBA449"/>
<path d="M170.186 126.062L169.396 127.819C168.169 128.441 168.596 128.261 166.97 128.001C165.711 126.726 166.061 127.364 165.688 125.547C166.396 124.038 166.143 124.521 167.889 123.541L170.186 126.062Z" fill="#F89761"/>
<path d="M167.889 123.541C169.768 122.237 169.175 122.259 171.215 122.181L172.258 122.779C172.63 124.163 172.671 123.493 172.033 124.847L170.186 126.062L167.889 123.541Z" fill="#FB9F9B"/>
<path d="M127.666 24.6099C131.309 26.6392 133.229 27.6474 135.627 31.1354L131.639 33.1126C129.251 33.9363 128.993 34.1429 127.055 35.8513L125.01 38.431L122.819 41.8352C122.401 42.813 121.418 45.6012 120.766 46.069L120.311 48.8742C117.302 57.5569 118.763 53.1034 112.832 56.2878C113.677 52.5484 112.91 39.4574 115.446 37.4805C122.498 31.9873 117.132 26.0113 127.666 24.6099Z" fill="#A9A09B"/>
<path d="M127.055 35.8513C124.556 34.417 123.076 34.572 120.169 34.323C119.117 33.2645 119.374 33.8657 119.144 32.5827L119.613 32.101C122.966 30.9265 128.313 31.7321 131.639 33.1126C129.251 33.9362 128.993 34.1429 127.055 35.8513Z" fill="#94847A"/>
<path d="M122.819 41.8351C118.992 41.7615 116.498 43.6165 115.294 43.1171C115.648 38.7963 121.679 38.4642 125.01 38.4309L122.819 41.8351Z" fill="#94847A"/>
<path d="M120.311 48.8741C118.427 49.7752 115.772 51.4032 113.852 50.9988L113.856 50.3077C116.323 47.6647 117.315 47.1298 120.765 46.0688L120.311 48.8741Z" fill="#94847A"/>
<path d="M140.175 21.5255C141.98 20.3998 143.225 20.2005 145.278 19.6875C146.744 20.1414 150.451 21.9693 151.181 22.1059C156.414 23.082 159.262 21.0359 162.308 26.9392L162.207 28.2457C160.029 28.9762 154.342 31.0176 154.31 33.7579C152.399 32.1914 152.123 32.119 149.629 32.1406L147.888 31.4066L147.437 31.1385L146.11 31.2407C143.5 31.4528 143.909 30.5725 141.204 31.1597C141.047 27.6767 139.554 24.3242 139.688 21.6221L140.175 21.5255Z" fill="#A9A09B"/>
<path d="M140.175 21.5254C143.404 24.5634 143.376 27.6923 144.346 32.1145C145.839 28.9558 147.079 25.7348 150.033 23.7082L150.534 24.1813C150.483 26.3701 148.852 29.3205 147.888 31.4065L147.437 31.1384L146.11 31.2406C143.5 31.4527 143.909 30.5724 141.204 31.1596C141.047 27.6766 139.554 24.3241 139.688 21.622L140.175 21.5254Z" fill="#94847A"/>
<path d="M149.628 32.1404C153.069 29.4298 157.805 26.7492 162.307 26.939L162.206 28.2455C160.028 28.9759 154.341 31.0173 154.309 33.7576C152.398 32.1911 152.122 32.1187 149.628 32.1404Z" fill="#94847A"/>
<path d="M161.095 38.7785C164.039 37.7788 166.805 38.2262 169.828 38.6159C175.657 41.9774 172.823 43.4101 173.121 48.1181C173.475 53.7194 174.596 57.0213 172.919 62.7108C169.203 58.2863 166.589 60.4111 165.555 52.9805L165.431 49.6965L164.448 48.2661C164.761 45.3262 164.315 44.7785 162.997 42.2002C162.156 41.0418 161.724 40.0525 161.095 38.7785Z" fill="#A9A09B"/>
<path d="M162.997 42.2004C168.969 42.7431 169.956 44.4851 173.723 48.9794C171.311 48.0172 168.077 46.3235 165.684 46.2486C164.604 46.8349 164.949 46.664 164.448 48.2663C164.761 45.3264 164.315 44.7787 162.997 42.2004Z" fill="#94847A"/>
<path d="M165.431 49.6968C169.91 51.5444 171.463 53.9444 173.7 58.163C171.279 56.5534 168.027 53.9572 165.555 52.9808L165.431 49.6968Z" fill="#94847A"/>
<path d="M162.206 28.2458C167.213 28.8979 171.008 31.3731 170.287 37.0594L169.827 38.6162C166.804 38.2266 164.039 37.7791 161.094 38.7788C160.575 37.9213 157.782 35.9495 156.804 35.2104L154.309 33.758C154.341 31.0177 160.028 28.9763 162.206 28.2458Z" fill="#A9A09B"/>
<path d="M156.804 35.2101C161.646 34.8521 166.148 34.1346 170.287 37.0592L169.828 38.6159C166.805 38.2263 164.04 37.7789 161.095 38.7786C160.576 37.921 157.783 35.9493 156.804 35.2101Z" fill="#94847A"/>
<path d="M127.665 24.6097C130.601 20.444 135.194 18.8899 139.687 21.622C139.554 24.3241 141.047 27.6766 141.203 31.1596C140.96 31.2243 139.866 31.5349 139.696 31.5347C138.029 31.1416 137.372 30.9036 135.626 31.1352C133.228 27.6472 131.308 26.639 127.665 24.6097Z" fill="#A9A09B"/>
<path d="M127.665 24.61C133.173 22.998 136.885 27.264 139.696 31.535C138.029 31.1419 137.372 30.9039 135.626 31.1355C133.228 27.6475 131.308 26.6393 127.665 24.61Z" fill="#94847A"/>
<path d="M167.958 73.4966C168.16 74.8801 168.376 75.9673 168.33 77.3743L168.551 77.7883C168.698 81.2309 169.355 86.2495 167.696 89.1453C166.511 89.9517 167.067 89.7729 165.404 89.5735C163.199 87.8656 163.346 86.6281 162.974 83.737C163.911 81.3411 165.059 75.2027 166.056 74.088L167.958 73.4966Z" fill="#F9B725"/>
<path d="M113.36 70.6328C114.104 69.6853 114.765 69.485 115.868 68.9253C116.497 72.9045 116.456 76.6343 117.127 80.8203C116.782 82.4056 116.695 83.7083 115.615 84.8474C113.915 85.3675 113.925 85.0771 112.059 84.6663L111.954 82.9496C111.894 78.5242 113.461 75.1809 113.36 70.6328Z" fill="#F9B725"/>
<path d="M168.551 77.7881C171.826 79.247 171.238 82.5871 170.834 85.844L169.846 86.3306L169.709 86.854C169.006 89.4635 166.893 94.4523 163.617 93.4914C161.996 91.6838 161.711 90.3393 161.26 87.949L160.985 87.3066L162.974 83.7368C163.346 86.6279 163.199 87.8653 165.404 89.5733C167.067 89.7727 166.511 89.9515 167.696 89.145C169.355 86.2493 168.698 81.2306 168.551 77.7881Z" fill="#94847A"/>
<path d="M168.33 77.3742C170.751 74.9687 171.256 74.2739 172.607 71.2146C174.146 75.8941 176.553 82.9107 170.834 85.8441C171.238 82.5872 171.826 79.2471 168.551 77.7882L168.33 77.3742Z" fill="#A38D7B"/>
<path d="M111.853 68.9412L113.36 70.6326C113.461 75.1807 111.894 78.524 111.954 82.9494C106.065 80.1538 109.767 73.0362 111.853 68.9412Z" fill="#A38D7B"/>
<path d="M117.127 80.8203C117.898 82.3045 118.643 83.8025 119.364 85.3133L119.028 87.4417C118.114 89.1905 118.551 88.9337 117.094 89.8954C114.017 89.7281 112.85 87.3498 112.06 84.6663C113.925 85.0771 113.915 85.3675 115.615 84.8474C116.695 83.7083 116.782 82.4056 117.127 80.8203Z" fill="#94847A"/>
<path d="M160.984 87.3066L161.26 87.949C160.791 89.9024 160.346 92.9268 158.926 94.1807C156.983 95.2785 156.524 94.4371 155.109 94.5938L155.389 93.5269C156.018 91.393 159.225 88.8956 160.984 87.3066Z" fill="#A38D7B"/>
<defs>
<linearGradient id="paint0_linear_2190_7292" x1="116.819" y1="126.945" x2="109.027" y2="121.858" gradientUnits="userSpaceOnUse">
<stop stop-color="#FFA663"/>
<stop offset="1" stop-color="#FA9978"/>
</linearGradient>
</defs>
</svg>
