<svg width="160" height="150" viewBox="0 0 160 150" fill="none" xmlns="http://www.w3.org/2000/svg">
<path d="M81.9635 15.5099C85.4055 10.2709 88.2955 6.42436 94.0285 3.37536C107.949 -4.02714 126.01 1.06536 133.056 15.5239C134.056 17.5769 134.9 19.9824 135.718 22.1384C141.552 36.1464 140.937 35.5624 141.814 50.6514C150.764 67.5299 161.454 77.2374 159.314 98.0674C157.238 118.278 159.478 134.627 133.982 139.374C131.978 139.735 125.056 141.983 122.663 142.87C118.394 144.535 113.188 146.822 108.978 148.182C102.553 150.506 99.7795 150.515 94.3355 146.319C90.0415 142.787 89.1785 140.106 87.4855 135.095C72.8685 139.433 63.599 135.718 50.02 130.062C48.0225 129.23 47.703 129.198 46.0035 129.938C43.623 131.976 40.8295 133.475 37.815 134.33C16.7995 140.168 8.44496 109.715 4.30046 95.3509C2.12096 87.7979 -1.16154 79.4094 0.412961 71.4444C2.39246 61.4324 11.1435 59.4874 19.525 57.5939C21.6535 53.6024 22.3595 48.8769 25.4045 44.8824C30.056 38.1939 38.472 38.4814 45.5505 37.4869C52.147 36.5599 53.6405 28.9379 56.444 25.2589C60.592 19.8164 72.1125 19.1604 78.6895 18.5104C80.5375 17.4924 80.6255 17.2254 81.9635 15.5099Z" fill="#A66542"/>
<path d="M81.9634 15.5099C85.4054 10.2709 88.2954 6.42436 94.0284 3.37536C107.949 -4.02714 126.01 1.06536 133.056 15.5239C134.056 17.5769 134.9 19.9824 135.718 22.1384C134.47 27.7104 136.931 34.3349 137.243 40.1564C137.836 51.2184 135.517 62.0449 125.043 68.0239C117.309 72.4714 108.116 73.6369 99.5174 71.2599C93.0819 69.5094 87.4669 65.9919 83.7989 60.2934C72.7324 43.0999 86.0794 21.7564 82.4974 16.2699C82.3279 16.0109 82.1414 15.7634 81.9634 15.5099Z" fill="#A66542"/>
<path d="M105.334 26.387C109.075 26.034 112.192 26.1195 115.782 27.3535C119.409 28.6 130.274 34.5185 127.363 39.174C124.131 41.051 116.179 39.242 110.931 39.1555C105.249 39.1925 100.544 39.852 94.9705 40.638C92.467 40.991 90.5195 40.7065 88.8815 38.7095C87.9355 32.022 99.99 27.347 105.334 26.387Z" fill="#F7D7AC"/>
<path d="M123.125 97.9614C128.38 89.1944 129.43 78.9744 132.427 69.4024C132.971 67.6639 136.995 63.9839 138.164 61.5734C139.977 57.8359 140.276 54.2314 141.814 50.6514C150.764 67.5299 161.454 77.2374 159.314 98.0674C157.238 118.278 159.478 134.627 133.982 139.374C131.978 139.735 125.056 141.983 122.663 142.87C118.394 144.535 113.188 146.822 108.978 148.182C102.553 150.506 99.7794 150.515 94.3354 146.319C94.8684 141.564 89.2044 131.709 93.7279 122.566C99.0084 111.894 110.433 105.988 121.646 103.483C125.82 102.551 131.332 102.221 134.942 100.785C136.34 99.0164 136.073 99.9489 136.25 98.0534L135.418 97.3014C131.268 96.1314 127.282 97.1529 123.125 97.9614Z" fill="#A66542"/>
<path d="M108.978 148.182C106.72 143.965 104.566 145.938 101.976 143.393C90.8399 132.45 109.092 113.7 119.783 121.712C124.032 124.897 122.993 137.443 122.663 142.87C118.394 144.535 113.188 146.822 108.978 148.182Z" fill="#F7D7AC"/>
<path d="M78.6894 18.5103C80.5374 17.4923 80.6254 17.2253 81.9634 15.5098C82.1414 15.7633 82.3279 16.0108 82.4974 16.2698C86.0794 21.7563 72.7324 43.0998 83.7989 60.2933C87.4669 65.9918 93.0819 69.5093 99.5174 71.2598C108.116 73.6368 117.309 72.4713 125.043 68.0238C135.517 62.0448 137.836 51.2183 137.243 40.1563C136.931 34.3348 134.47 27.7103 135.718 22.1383C141.552 36.1463 140.937 35.5623 141.814 50.6513C140.276 54.2313 139.977 57.8358 138.164 61.5733C136.995 63.9838 132.971 67.6638 132.427 69.4023C129.43 78.9743 128.38 89.1943 123.125 97.9613C127.282 97.1528 131.268 96.1313 135.418 97.3013L136.25 98.0533C136.073 99.9488 136.34 99.0163 134.942 100.785C131.332 102.221 125.82 102.551 121.646 103.483C110.433 105.988 99.0084 111.894 93.7279 122.566C89.2044 131.709 94.8684 141.564 94.3354 146.319C90.0414 142.787 89.1784 140.106 87.4854 135.095C72.8684 139.433 63.5989 135.718 50.0199 130.062C48.0224 129.23 47.7029 129.198 46.0034 129.938C44.8474 128.658 42.6264 128.463 41.8134 127.135C34.6064 115.37 32.9519 100.764 28.2374 87.9458C27.1449 84.9758 26.3029 82.6583 26.4424 79.5103C28.0494 78.5198 28.0249 78.6053 29.8159 78.4683C34.9109 84.4768 38.9089 114.401 47.5724 125.901C52.9089 127.694 56.9704 130.689 63.0384 129.39C68.5974 128.201 71.9914 124.738 74.9154 120.193C64.0689 104.937 62.2124 85.5893 56.4159 67.9843C55.8424 66.2433 54.9549 63.0173 55.4249 61.2708C57.0064 60.0778 56.1209 60.4863 58.2719 60.2333C59.2414 60.7608 59.6299 60.7533 60.0064 61.9943C64.8474 77.9458 68.0684 95.0843 74.5924 110.398C77.2889 116.728 82.6819 118.379 88.6804 120.153C95.5739 111.089 97.5359 108.51 107.507 103.299C105.898 96.1323 101.801 84.8173 99.5759 76.8983C82.3054 70.4293 73.5944 60.7753 74.6679 41.4088C75.1129 33.3793 77.3029 26.2853 78.6894 18.5103Z" fill="#964A21"/>
</svg>
