<svg width="315" height="200" viewBox="0 0 315 200" fill="none" xmlns="http://www.w3.org/2000/svg">
<path d="M0.13129 0L314.661 0.00432556L314.659 144.093L314.741 181.528C314.749 184.934 314.936 196.921 314.392 199.641L149.826 199.623C141.678 199.912 131.711 199.676 123.472 199.677L73.2119 199.673C51.2122 199.671 23.4509 200.487 1.82328 199.548L0.661057 199.474C-0.361184 197.363 0.104337 170.138 0.114391 165.747L0.126599 137.263L0.13062 132.917L0.151158 128.138L0.120902 88.8378L0.13129 0Z" fill="url(#paint0_linear_2190_1895)"/>
<path d="M0.120902 88.8377C8.1722 87.9883 17.4028 88.0505 15.579 99.5329C20.3878 98.4085 25.0998 97.1827 29.6863 95.8342C34.4297 94.4403 38.5575 92.8055 42.9459 95.8304C53.0333 102.784 62.9603 110.497 72.9888 117.572C75.0158 119.002 79.2004 122.484 81.3197 123.035C85.8352 112.584 87.887 118.787 91.9002 118.198C93.9506 116.676 96.0638 114.708 98.7471 115.356C104.33 116.703 105.29 120.127 105.2 125.067C107.508 124.057 110.359 122.561 112.839 123.278C114.354 124.583 114.245 127.171 115.11 127.317C122.714 128.602 116.74 132.25 117.745 134.439L120.728 135.702C120.659 133.33 120.556 130.958 120.421 128.589C119.952 119.186 126.404 125.808 129.291 122.637C129.201 121.087 129.24 120.539 129.729 119.066C133.709 119.036 143.947 118.001 146.405 119.594C148.672 122.357 147.903 126.819 147.919 130.478L156.398 130.571C157.322 134.414 157.068 140.207 157.011 144.307L167 144.348C167.018 139.035 166.775 131.879 167.117 126.775L178.452 126.712C177.843 129.465 177.689 145.07 178.632 147.219C181.377 148.193 195.006 147.841 198.624 147.68C198.64 150.656 198.536 155.385 198.731 158.22C207.924 158.696 208.487 157.668 207.821 148.091C207.647 145.593 207.648 142.608 207.654 140.07L227.346 140.126C227.358 142.474 226.947 148.559 227.535 150.091C229.121 151.262 230.975 150.236 233.023 149.973C234.695 147.398 233.226 145.267 234.652 145.313C238.991 145.453 244.69 145.257 248.951 145.123C251.388 147.217 248.495 154.095 250.388 157.934C252.378 159.248 264.787 158.891 267.338 158.47L267.485 157.82C264.141 153.163 265.509 149.416 269.502 145.411C271.227 143.681 275.676 145.046 276.125 142.472C276.377 137.464 276.515 133.392 283.415 133.514L283.946 133.381C291.479 131.542 291.499 137.764 296.155 136.216C292.547 120.169 298.782 126.218 303.375 121.27C307.461 116.867 301.914 113.205 314.227 112.232L314.27 172.205C314.271 177.906 313.852 195.023 314.392 199.64L149.826 199.623C141.678 199.911 131.711 199.676 123.472 199.677L73.2119 199.673C51.2122 199.671 23.4509 200.487 1.82328 199.548L0.661056 199.474C-0.361184 197.363 0.104337 170.137 0.114391 165.746L0.126599 137.262L0.13062 132.917L0.151158 128.137L0.120902 88.8377Z" fill="#111B38"/>
<path d="M0.126599 137.262C7.28683 137.657 17.3016 137.168 24.7982 137.149L77.1543 137.238L77.2505 168.135C77.2625 171.532 77.07 180.294 77.4008 183.344C81.9723 185.933 78.8763 187.592 81.1599 189.79C83.126 190.077 83.6574 188.478 87.0162 187.967L87.4983 187.033L89.306 187.068L91.3114 189.833C91.9491 191.135 91.9802 191.794 92.1128 193.243C94.5587 196.086 97.6747 193.79 97.2664 199.108L129.383 199.133C132.982 199.125 146.921 198.812 149.826 199.623C141.678 199.911 131.711 199.676 123.472 199.677L73.2119 199.672C51.2122 199.671 23.4509 200.487 1.82328 199.548L0.661057 199.474C-0.361184 197.363 0.104337 170.137 0.114391 165.746L0.126599 137.262Z" fill="#222A57"/>
<path d="M0.114391 165.746C2.58906 165.783 4.73317 165.682 6.55949 167.508C7.86346 170.271 4.8325 175.111 8.60248 175.766C15.0692 176.889 16.3695 179.777 12.7472 185.819C17.3417 187.262 17.052 188.859 19.9302 190.178C22.3405 189.487 23.5319 188.66 25.6425 190.429C27.1412 191.685 26.6897 195.233 28.0947 195.301C30.8098 195.432 33.9064 193.621 33.7574 198.792C30.3042 199.952 6.79861 198.292 1.82328 199.548L0.661057 199.474C-0.361184 197.363 0.104337 170.137 0.114391 165.746Z" fill="#0B1930"/>
<path d="M48.5723 199.008C49.2664 197.392 49.6643 196.221 50.8233 194.865C52.5673 194.476 53.5846 194.489 54.6383 193.171C54.6297 191.915 54.4961 191.363 55.1764 190.31C58.7291 188.147 58.7128 190.799 62.3799 190.978C65.7081 185.467 68.174 180.775 74.9175 185.205C76.5461 184.913 76.0387 184.988 77.4007 183.344C81.9721 185.934 78.8761 187.592 81.1597 189.791C83.1258 190.078 83.6572 188.479 87.016 187.967L87.4981 187.034L89.3058 187.068L91.3112 189.833C91.9489 191.135 91.98 191.795 92.1126 193.244C94.5585 196.087 97.6746 193.791 97.2662 199.109C82.401 199.441 63.3943 199.337 48.5723 199.008Z" fill="#0B1930"/>
<path d="M19.5773 182.618C19.5799 177.254 18.8733 147.018 19.8272 143.701L20.6308 143.638C25.0012 143.834 31.8551 142.903 34.668 144.511C35.2902 145.709 35.1559 146.31 35.1543 147.71C35.3795 148.36 35.7997 149.494 35.8093 150.2C36.048 167.648 37.1401 161.996 22.5606 163.221C24.317 163.934 33.392 163.851 35.6462 163.83C36.1997 181.769 38.4724 183.305 19.5773 182.618Z" fill="#393B4D"/>
<path d="M20.6306 143.638C25.0011 143.834 31.8549 142.903 34.6679 144.511C35.2901 145.709 35.1557 146.31 35.1541 147.71C35.1123 150.748 35.0281 153.871 35.1017 156.901C31.9179 157.935 30.9439 158.975 30.6193 162.396L20.7723 162.34C20.798 156.419 20.9912 149.47 20.6306 143.638Z" fill="#C98F48"/>
<path d="M35.1021 156.901C35.1702 158.761 35.5302 160.657 34.5271 162.056C33.1656 162.689 32.1413 162.475 30.6196 162.395C30.9442 158.975 31.9182 157.935 35.1021 156.901Z" fill="#614B4F"/>
<path d="M20.7402 164.628C22.8439 164.688 26.6811 163.791 28.3416 165.274C29.2598 166.094 30.008 167.895 30.1082 169.099C28.8418 170.296 27.4287 170.431 25.9479 171.199C24.7229 171.835 24.1958 174.151 23.7568 175.389C23.3224 177.236 23.485 179.302 23.5276 181.196L22.9199 181.611L21.8142 181.31C19.4523 177.928 20.7054 168.782 20.7402 164.628Z" fill="#BD8341"/>
<path d="M37.0588 162.507C36.4109 159.061 35.5507 146.708 37.3548 143.777L51.806 143.856C52.6835 148.537 51.3857 161.607 52.2952 164.654C52.6787 167.568 52.469 178.641 52.5959 182.698C49.7082 182.715 41.068 183.248 38.7006 182.536C35.5605 181.592 37.5779 172.633 37.2693 170.275C36.8029 166.711 35.0554 168.01 37.5742 164.103L37.0588 162.507Z" fill="#393B4D"/>
<path d="M37.3547 143.777L51.8059 143.856C51.1505 148.32 51.4263 157.564 51.4732 162.403L40.5375 162.386C40.2355 159.322 40.2282 158.653 37.4592 156.985C37.5044 152.771 37.6647 147.921 37.3547 143.777Z" fill="#C98F48"/>
<path d="M37.459 156.985C40.228 158.653 40.2353 159.322 40.5372 162.386C39.2 162.426 39.2383 162.47 38.0058 162.011C37.0759 160.626 37.4027 158.777 37.459 156.985Z" fill="#614B4F"/>
<path d="M41.501 165.13C47.7532 163.431 51.7526 163.075 51.5032 170.357C51.4519 174.183 51.4299 178.01 51.4366 181.837C45.5209 182.879 43.9095 182.38 42.9271 176.826C42.4647 173.079 42.2535 172.837 39.1646 170.68C38.7687 167.803 38.4997 165.987 41.1941 164.674L41.501 165.13Z" fill="#C98F48"/>
<path d="M42.9272 176.826C44.9087 176.424 44.4568 176.222 46.1199 176.795C46.4637 178.985 45.9706 179.399 47.514 181.221C48.8521 181.846 49.9507 181.766 51.4367 181.837C45.521 182.879 43.9096 182.38 42.9272 176.826Z" fill="#614B4F"/>
<path d="M39.1646 170.679C38.7687 167.803 38.4997 165.987 41.1941 164.674L41.501 165.13C41.4694 168.027 41.218 168.602 39.1646 170.679Z" fill="#383D46"/>
<path d="M0.151153 128.138C18.6465 128.555 37.1451 128.816 55.6448 128.921C60.2521 128.944 82.7392 128.759 85.9898 129.612C86.4005 131.169 86.3474 131.271 86.1243 132.903C84.4483 134.072 9.30698 132.217 0.130615 132.917L0.151153 128.138Z" fill="#222A57"/>
<path d="M103.59 169.101C101.415 169.114 86.3873 169.343 85.561 168.927C89.0113 167.913 100.671 167.863 104.447 167.982C104.569 171.06 104.709 174.268 104.828 177.348C105.144 185.56 106.852 189.513 96.6897 189.866C94.8968 189.917 93.103 189.906 91.3111 189.833L89.3057 187.068L87.498 187.033C86.6578 185.854 86.8278 183.905 86.7741 182.336C85.8076 181.098 85.7966 170.705 86.4505 169.725C90.0157 169.234 98.5587 169.521 102.358 169.778C103.412 172.939 102.625 183.943 102.612 187.904L92.0412 188.194C96.142 188.861 99.4438 188.777 103.59 188.734V169.101Z" fill="#222A57"/>
<path d="M86.8773 170.212L93.9061 170.092C93.9004 172.684 94.122 185.729 93.3235 187.023C91.5057 187.277 91.1338 187.269 89.306 187.068L87.4983 187.033C86.6581 185.854 86.828 183.905 86.7744 182.336C87.1258 178.691 86.9262 173.95 86.8773 170.212Z" fill="#794D3B"/>
<path d="M95.1177 170.143L102.16 170.13L102.097 187.18L95.29 187.255L95.1177 170.143Z" fill="#794D3B"/>
<path d="M120.728 135.702C120.659 133.33 120.556 130.958 120.421 128.589C119.952 119.186 126.404 125.808 129.291 122.637C129.201 121.087 129.24 120.539 129.729 119.066C130.055 120.836 130.276 121.453 129.986 123.256C128.103 125.779 125.857 124.752 122.872 124.647C121.071 126.671 125.161 149.017 118.882 149.982C118.135 146.413 119.073 146.435 116.564 143.325C120.022 139.937 120.028 140.979 120.728 135.702Z" fill="#222A57"/>
<path d="M163.621 149.857C169.571 149.166 175.923 149.869 181.931 149.806C182.008 149.961 182.087 150.115 182.162 150.27C185.133 156.413 192.104 162.221 193.828 166.379C193.698 166.701 193.576 167.026 193.423 167.337C189.887 174.506 193.897 185.859 192.022 193.704C191.827 194.522 191.533 195.474 190.722 195.858C189.09 196.631 180.568 196.66 179.099 195.858C178.607 195.59 178.522 194.694 178.371 194.177L178.269 188.396C169.208 188.047 159.97 188.177 150.904 188.463L148.95 183.283C149.393 183.247 149.83 183.2 150.272 183.153C151.163 183.058 152.074 182.99 152.892 182.587C154.695 181.698 156.592 179.598 157.175 177.682C157.725 175.875 157.672 173.81 156.732 172.142C156.061 170.949 155.088 170.077 153.748 169.754C153.156 169.611 152.869 169.584 152.405 169.148C153.208 166.135 156.626 166.154 157.596 163.055C158.14 161.316 156.522 158.242 157.372 156.91C158.907 154.506 161.7 152.891 163.337 150.313L163.621 149.857Z" fill="#222A57"/>
<path d="M168.803 173.014C170.02 172.997 171.004 172.985 172.163 173.384C173.209 175.045 172.842 176.902 172.847 178.843C171.56 178.85 170.535 178.922 169.37 178.322C168.329 176.883 168.742 174.723 168.803 173.014Z" fill="#614B4F"/>
<path d="M180.758 172.833C181.93 172.827 182.8 172.872 183.906 173.272C184.866 175.055 184.507 176.783 184.477 178.788C183.292 178.786 182.403 178.758 181.293 178.324C180.305 176.553 180.704 174.84 180.758 172.833Z" fill="#794D3B"/>
<path d="M176.259 158.625C177.098 158.745 177.921 158.96 178.746 159.152C179.704 160.589 179.394 161.802 179.376 163.491L177.082 163.162C175.995 161.799 176.309 160.334 176.259 158.625Z" fill="#614B4F"/>
<path d="M80.2599 155.397C88.8924 155.233 97.5364 155.247 106.17 155.191C111.049 155.159 116.547 154.596 121.323 155.451C122.266 156.688 122.067 157.109 122.053 158.626C108.376 158.701 94.09 159.418 80.4868 158.292L79.9109 157.61L80.2599 155.397Z" fill="#222A57"/>
<path d="M248.981 180.091C250.489 180.056 252.178 179.765 253.454 180.682C254.662 182.737 254.06 185.948 254.004 188.29C252.091 188.356 250.788 188.611 249.262 187.375C248.358 185.303 248.862 182.344 248.981 180.091Z" fill="#794D3B"/>
<path d="M237.662 180.15C239.529 180.09 240.863 179.879 242.413 180.973C243.363 183.022 242.841 185.995 242.715 188.242C241.166 188.324 239.767 188.56 238.359 187.787C236.95 185.813 237.589 182.486 237.662 180.15Z" fill="#794D3B"/>
<path d="M131.257 132.518C132.31 132.522 133.133 132.616 134.147 132.91C135.126 134.582 134.786 136.32 134.78 138.234C133.613 138.297 132.852 138.292 131.76 137.849C130.864 136.101 131.21 134.464 131.257 132.518Z" fill="#614B4F"/>
<path d="M140.524 132.479C141.591 132.536 142.451 132.667 143.471 132.992C144.439 134.584 144.002 136.379 143.935 138.219C142.848 138.211 142.025 138.223 141.03 137.752C140.133 136.095 140.49 134.344 140.524 132.479Z" fill="#614B4F"/>
<path d="M212.602 147.742C213.672 147.801 214.478 147.927 215.484 148.305C216.251 149.822 215.853 151.07 215.697 152.732C214.794 152.774 214.115 152.66 213.242 152.468C212.322 150.985 212.615 149.463 212.602 147.742Z" fill="#393B4D"/>
<path d="M266.022 120.192L283.326 120.262C283.316 123.386 283.103 130.717 283.415 133.514C276.515 133.392 276.377 137.464 276.125 142.473C275.676 145.046 271.227 143.682 269.502 145.411C265.509 149.416 264.141 153.163 267.485 157.821L267.338 158.47C264.787 158.891 252.378 159.249 250.388 157.935C248.496 154.095 251.388 147.217 248.951 145.123C244.691 145.258 238.991 145.453 234.652 145.313C233.226 145.267 234.695 147.398 233.023 149.973C230.975 150.237 229.121 151.262 227.535 150.091C226.947 148.559 227.358 142.474 227.346 140.126L207.654 140.07C207.648 142.609 207.647 145.593 207.821 148.091C208.487 157.668 207.924 158.696 198.731 158.221C198.536 155.385 198.64 150.657 198.624 147.681C195.006 147.841 181.377 148.193 178.632 147.219C177.689 145.07 177.843 129.466 178.452 126.713C179.381 129.989 179.041 142.712 178.985 146.946C185.887 146.77 192.79 146.69 199.693 146.706C199.451 151.327 199.591 152.794 200.058 157.455L206.318 157.411C206.55 151.41 206.648 145.404 206.612 139.398C213.767 138.882 220.95 138.864 228.109 139.344C228.09 141.758 227.676 146.574 228.544 148.341C230.133 149.586 229.382 149.235 231.583 149.5C233.57 148.317 233.047 146.574 233.03 144.362L250.576 144.203C250.555 147.741 250.008 155.124 251.919 157.897C257.046 158.075 255.126 133.843 255.304 129.009L266.068 128.812L266.022 120.192Z" fill="#222A57"/>
<path d="M270.885 129.963C271.826 130.027 272.588 130.188 273.495 130.449C274.385 131.901 274.081 133.385 274.078 135.064C273.175 134.897 272.33 134.66 271.454 134.385C270.557 132.868 270.848 131.687 270.885 129.963Z" fill="#614B4F"/>
<path d="M262.249 138.33C263.007 138.436 263.736 138.642 264.475 138.838C265.403 140.509 265.076 141.864 265.02 143.755C264.061 143.569 263.324 143.361 262.456 142.907C261.728 141.252 262.073 140.11 262.249 138.33Z" fill="#614B4F"/>
<path d="M59.4867 24.438L60.1981 24.72C58.4938 27.154 56.6947 29.6091 55.5908 32.3893C53.9463 36.4892 53.9894 41.0737 55.7104 45.1421C57.5727 49.4297 61.0617 52.8008 65.4101 54.5146C70.6623 56.566 75.4927 55.7007 80.5251 53.5353C78.2315 56.2657 75.9633 58.3588 72.8462 60.1234C68.0546 62.0694 63.2419 62.474 58.3382 60.5931C53.6648 58.7974 49.9005 55.2118 47.8798 50.6306C45.7949 45.9092 45.6824 40.5499 47.5662 35.7451C49.8206 30.0602 54.0607 26.85 59.4867 24.438Z" fill="#F6DAAC"/>
<defs>
<linearGradient id="paint0_linear_2190_1895" x1="157.249" y1="-0.226496" x2="156.47" y2="156.658" gradientUnits="userSpaceOnUse">
<stop stop-color="#10163F"/>
<stop offset="1" stop-color="#293379"/>
</linearGradient>
</defs>
</svg>
